<svg width="309" height="302" viewBox="0 0 309 302" fill="none" xmlns="http://www.w3.org/2000/svg">
<path d="M154.599 265.353C220.42 265.353 273.778 262.238 273.778 258.395C273.778 254.552 220.42 251.437 154.599 251.437C88.7778 251.437 35.4194 254.552 35.4194 258.395C35.4194 262.238 88.7778 265.353 154.599 265.353Z" fill="#F5F5F5"/>
<path d="M215.605 102.999L209.507 100.54C209.507 100.54 201.461 115.212 199.156 115.956C196.021 116.964 189.53 119.767 185.683 120.259C185.16 120.874 184.306 122.785 184.386 123.48C189.555 125.207 200.914 122.914 203.348 121.107C208.887 117.007 215.605 102.999 215.605 102.999Z" fill="#E58A7B"/>
<path d="M217.48 99.6612C218.617 103.859 212.458 112.305 212.458 112.305L204.387 107.781C204.387 107.781 205.899 104.308 207.743 100.774C210.7 95.0634 216.183 94.8728 217.48 99.6612Z" fill="#4CAF4F"/>
<path opacity="0.2" d="M217.48 99.6612C218.617 103.859 212.458 112.305 212.458 112.305L204.387 107.781C204.387 107.781 205.899 104.308 207.743 100.774C210.7 95.0634 216.183 94.8728 217.48 99.6612Z" fill="black"/>
<path opacity="0.2" d="M207.59 109.588L210.767 111.371L211.327 101.616C209.477 103.036 208.174 107.314 207.59 109.588Z" fill="black"/>
<path d="M212.169 96.5017C212.169 96.5017 205.887 110.479 209.551 136.505H234.304C234.697 132.706 233.394 114.167 238.108 96.2681C235.393 95.7375 232.646 95.3864 229.884 95.2171C226.381 95.0141 222.87 95.0141 219.367 95.2171C216.939 95.4636 214.533 95.8931 212.169 96.5017Z" fill="#4CAF4F"/>
<path opacity="0.2" d="M212.169 96.5017C212.169 96.5017 205.887 110.479 209.551 136.505H234.304C234.697 132.706 233.394 114.167 238.108 96.2681C235.393 95.7375 232.646 95.3864 229.884 95.2171C226.381 95.0141 222.87 95.0141 219.367 95.2171C216.939 95.4636 214.533 95.8931 212.169 96.5017Z" fill="black"/>
<g style="mix-blend-mode:multiply">
<path d="M206.428 258.948C206.391 259.612 215.777 260.147 227.388 260.147C238.999 260.147 248.453 259.612 248.49 258.948C248.527 258.284 239.147 257.756 227.53 257.756C215.912 257.756 206.471 258.29 206.428 258.948Z" fill="#E8ECF1"/>
</g>
<path d="M222.951 241.505L218.561 243.205L222.342 252.974L226.733 251.275L222.951 241.505Z" fill="#E58A7B"/>
<path d="M242.528 254.221H237.899L236.203 243.507H240.831L242.528 254.221Z" fill="#E58A7B"/>
<path d="M237.58 253.686H242.78C242.87 253.687 242.957 253.719 243.026 253.778C243.094 253.836 243.14 253.917 243.155 254.006L243.825 258.118C243.839 258.221 243.831 258.326 243.8 258.426C243.77 258.526 243.719 258.618 243.65 258.696C243.582 258.774 243.497 258.837 243.402 258.879C243.307 258.921 243.203 258.943 243.099 258.942C241.286 258.911 240.413 258.801 238.127 258.801C236.719 258.801 233.824 258.948 231.869 258.948C229.915 258.948 229.785 257.03 230.591 256.852C234.205 256.071 235.606 255.008 236.811 253.975C237.024 253.789 237.297 253.686 237.58 253.686Z" fill="#263238"/>
<path d="M222.213 252.101L227.13 250.662C227.218 250.638 227.312 250.644 227.395 250.679C227.479 250.715 227.548 250.778 227.591 250.859L229.435 254.547C229.478 254.641 229.5 254.742 229.499 254.845C229.499 254.948 229.476 255.05 229.432 255.143C229.388 255.236 229.324 255.318 229.245 255.384C229.166 255.45 229.074 255.498 228.974 255.524C227.186 256.016 225.987 256.317 223.75 256.969C222.207 257.418 220.633 258.149 219.109 258.635C218.051 258.973 215.568 258.985 214.284 258.985C212.384 258.985 211.96 256.981 212.778 256.889C214.837 256.661 215.113 256.766 216.25 256.194C218.111 255.381 219.797 254.216 221.217 252.764C221.485 252.459 221.828 252.23 222.213 252.101Z" fill="#263238"/>
<path d="M186.457 120.234L181.368 118.101L179.271 123.744C181.358 124.062 183.48 124.062 185.566 123.744L186.457 120.234Z" fill="#E58A7B"/>
<path d="M177.581 117.954L177.446 121.703L179.272 123.732L181.368 118.089L177.581 117.954Z" fill="#E58A7B"/>
<path d="M223.553 242.335L219.149 244.035L221.1 249.087L225.503 247.387L223.553 242.335Z" fill="#CF6F64"/>
<path d="M240.831 243.507H236.203L237.082 249.033H241.71L240.831 243.507Z" fill="#CF6F64"/>
<path opacity="0.2" d="M208.764 129.467C208.856 130.579 208.96 131.716 209.096 132.884L227.499 126.91C230.373 126.058 232.871 124.252 234.58 121.789C234.654 120.148 234.746 118.421 234.887 116.62C234.949 115.747 235.023 114.85 235.103 113.94C235.182 113.03 235.293 112.022 235.41 111.051L208.764 129.467Z" fill="black"/>
<path d="M214.775 109.305L214.161 109.232C214.523 106.158 216.816 103.736 219.232 103.798V104.413C217.117 104.37 215.101 106.552 214.775 109.305Z" fill="white"/>
<path d="M218.052 114.979H217.947V114.364C220.062 114.444 222.047 112.237 222.373 109.49L222.987 109.564C222.662 112.569 220.443 114.979 218.052 114.979Z" fill="white"/>
<path d="M229.54 83.3723C228.673 86.7591 227.653 92.9612 229.884 95.217C229.884 95.217 228.323 98.6531 222.034 98.6531C216.287 98.6531 219.367 95.217 219.367 95.217C223.19 94.3196 223.258 91.529 222.754 88.8859L229.54 83.3723Z" fill="#E58A7B"/>
<path d="M226.774 85.622L222.76 88.8859C222.884 89.4933 222.956 90.1103 222.975 90.73C224.149 91.8978 226.503 88.9413 226.743 87.4292C226.865 86.8338 226.875 86.2211 226.774 85.622Z" fill="#CF6F64"/>
<path d="M215.857 83.3292C216.136 83.8133 216.513 84.2346 216.962 84.5667C217.412 84.8988 217.925 85.1346 218.469 85.2593C219.945 85.5851 220.682 84.2266 220.277 82.8621C219.914 81.6327 218.703 79.9792 217.203 80.262C216.882 80.3282 216.581 80.4704 216.326 80.6767C216.071 80.883 215.869 81.1474 215.738 81.4477C215.606 81.7481 215.548 82.0757 215.569 82.403C215.589 82.7304 215.688 83.048 215.857 83.3292Z" fill="#CF6F64"/>
<path d="M218.297 72.4925C215.998 73.5436 215.187 82.6777 218.076 84.03C220.965 85.3823 222.649 70.4948 218.297 72.4925Z" fill="#263238"/>
<path d="M230.24 78.2766C229.687 82.8621 229.626 85.5605 227.167 87.9086C226.405 88.6878 225.443 89.2413 224.386 89.5079C223.329 89.7746 222.22 89.7441 221.179 89.4198C220.139 89.0954 219.208 88.4899 218.49 87.67C217.773 86.8502 217.295 85.8478 217.111 84.7737C216.367 80.6554 217.394 73.8509 221.992 72.0254C222.958 71.5993 224.02 71.4393 225.069 71.5621C226.117 71.6848 227.114 72.0858 227.956 72.7236C228.797 73.3613 229.453 74.2124 229.854 75.1888C230.256 76.1652 230.389 77.2313 230.24 78.2766Z" fill="#E58A7B"/>
<path d="M222.686 74.8652C226.092 73.9985 228.593 73.4084 227.696 76.242C226.51 80.0284 225.083 83.6919 226.995 83.8579C228.163 83.9624 233.326 81.7741 232.669 79.5551C232.097 77.6251 234.513 77.0964 234.943 76.1191C236.535 72.5786 231.98 73.0457 232.791 70.8944C233.603 68.743 229.103 65.2762 226.645 67.0035C222.643 69.7941 215.777 69.7511 219.385 65.1594C221.973 61.8832 217.357 62.5532 217.357 62.5532C217.357 62.5532 220.148 64.2067 215.452 66.7637C210.485 69.4929 215.04 76.826 222.686 74.8652Z" fill="#263238"/>
<path d="M232.048 83.3292C231.375 84.302 230.365 84.9899 229.214 85.2593C227.696 85.5851 227.112 84.2266 227.683 82.8621C228.194 81.6327 229.595 79.9792 231.046 80.262C232.496 80.5447 232.828 82.1245 232.048 83.3292Z" fill="#E58A7B"/>
<path d="M209.551 136.505C209.551 136.505 205.395 173.693 205.07 187.806C204.738 202.484 219.152 248.283 219.152 248.283L226.528 245.21C226.528 245.21 217.922 203.363 219.152 188.949C220.455 173.232 225.839 136.529 225.839 136.529L209.551 136.505Z" fill="#4CAF4F"/>
<path opacity="0.2" d="M219.877 146.715C216.564 153.587 218.795 167.177 220.59 175.229C221.272 169.544 222.084 163.372 222.852 157.662C222.778 148.884 222.096 142.104 219.877 146.715Z" fill="black"/>
<path d="M226.202 242.776C226.239 242.776 227.075 245.124 227.075 245.124L218.568 248.701L217.228 246.206L226.202 242.776Z" fill="#4CAF4F"/>
<path d="M218.334 136.505C218.334 136.505 221.512 171.873 223.614 185.119C225.925 199.632 234.986 247.964 234.986 247.964H243.462C243.462 247.964 238.385 200.806 237.426 186.435C236.381 170.847 234.303 136.505 234.303 136.505H218.334Z" fill="#4CAF4F"/>
<path d="M243.591 245.757C243.628 245.757 243.874 248.124 243.874 248.124H234.555L233.892 245.407L243.591 245.757Z" fill="#4CAF4F"/>
<path opacity="0.2" d="M240.346 242.954C240.327 242.954 240.308 242.948 240.293 242.935C240.279 242.923 240.269 242.906 240.266 242.887C240.217 242.456 235.637 199.859 234.777 186.951C233.842 172.949 231.962 141.889 231.943 141.576C231.942 141.566 231.944 141.555 231.947 141.546C231.95 141.536 231.956 141.527 231.962 141.52C231.969 141.512 231.978 141.506 231.987 141.502C231.997 141.498 232.007 141.496 232.017 141.496C232.037 141.496 232.057 141.503 232.071 141.517C232.086 141.531 232.095 141.55 232.097 141.57C232.097 141.883 233.996 172.918 234.93 186.945C235.791 199.853 240.37 242.419 240.413 242.88C240.415 242.891 240.415 242.901 240.412 242.911C240.41 242.921 240.405 242.93 240.399 242.939C240.392 242.947 240.384 242.953 240.375 242.958C240.366 242.963 240.356 242.966 240.346 242.967V242.954Z" fill="black"/>
<path d="M223.209 79.5552C223.209 79.9301 222.975 80.2313 222.729 80.2313C222.483 80.2313 222.305 79.9301 222.33 79.5552C222.354 79.1802 222.563 78.879 222.809 78.879C223.055 78.879 223.233 79.1864 223.209 79.5552Z" fill="#263238"/>
<path d="M218.992 79.5552C218.992 79.9301 218.752 80.2313 218.512 80.2313C218.273 80.2313 218.088 79.9301 218.107 79.5552C218.125 79.1802 218.346 78.879 218.592 78.879C218.838 78.879 219.016 79.1864 218.992 79.5552Z" fill="#263238"/>
<path d="M220.32 79.7457C219.806 80.8906 219.145 81.9632 218.353 82.9358C218.967 83.5505 220.117 83.2678 220.117 83.2678L220.32 79.7457Z" fill="#DF5753"/>
<path d="M220.43 84.8352C220.416 84.8352 220.402 84.8323 220.389 84.8267C220.376 84.8211 220.364 84.8128 220.354 84.8025C220.344 84.7921 220.337 84.7798 220.332 84.7664C220.327 84.753 220.325 84.7388 220.326 84.7246C220.327 84.6947 220.34 84.6665 220.362 84.6459C220.384 84.6253 220.412 84.6139 220.442 84.6139C220.913 84.6172 221.377 84.5151 221.803 84.3151C222.228 84.1151 222.604 83.8224 222.901 83.4583C222.922 83.4397 222.95 83.4295 222.978 83.4295C223.006 83.4295 223.033 83.4397 223.055 83.4583C223.075 83.479 223.086 83.5065 223.086 83.5352C223.086 83.5638 223.075 83.5914 223.055 83.612C222.736 83.9989 222.335 84.3096 221.881 84.5212C221.427 84.7329 220.931 84.8402 220.43 84.8352Z" fill="#263238"/>
<path d="M223.958 78.4242C223.929 78.4393 223.896 78.4471 223.863 78.4471C223.83 78.4471 223.797 78.4393 223.768 78.4242C223.538 78.2755 223.276 78.183 223.004 78.1542C222.732 78.1254 222.456 78.161 222.2 78.2582C222.175 78.2707 222.148 78.278 222.12 78.2798C222.093 78.2816 222.065 78.2778 222.038 78.2687C222.012 78.2595 221.988 78.2452 221.967 78.2265C221.946 78.2078 221.929 78.1851 221.918 78.1599C221.895 78.1052 221.894 78.0437 221.916 77.9886C221.938 77.9335 221.98 77.8891 222.034 77.8648C222.356 77.7336 222.704 77.6818 223.05 77.7139C223.395 77.746 223.728 77.861 224.02 78.0492C224.043 78.0652 224.064 78.0858 224.079 78.1096C224.095 78.1335 224.105 78.1602 224.11 78.1882C224.116 78.2163 224.115 78.245 224.109 78.2729C224.103 78.3007 224.092 78.3271 224.075 78.3504C224.044 78.3856 224.004 78.4112 223.958 78.4242Z" fill="#263238"/>
<path d="M217.363 77.1948C217.33 77.1868 217.3 77.1698 217.277 77.1456C217.257 77.1256 217.24 77.1017 217.229 77.0753C217.218 77.0489 217.212 77.0205 217.212 76.9919C217.212 76.9633 217.218 76.935 217.229 76.9086C217.24 76.8822 217.257 76.8583 217.277 76.8383C217.513 76.574 217.806 76.3678 218.134 76.2356C218.463 76.1033 218.817 76.0488 219.17 76.0761C219.198 76.0804 219.226 76.0905 219.25 76.1058C219.274 76.1211 219.295 76.1411 219.311 76.1647C219.327 76.1884 219.338 76.2151 219.344 76.2432C219.349 76.2712 219.348 76.3002 219.342 76.3281C219.329 76.385 219.296 76.4351 219.248 76.4691C219.201 76.503 219.142 76.5185 219.084 76.5125C218.805 76.4949 218.525 76.5411 218.266 76.6476C218.008 76.7541 217.776 76.9181 217.59 77.1272C217.562 77.1583 217.526 77.181 217.486 77.193C217.446 77.2049 217.403 77.2055 217.363 77.1948Z" fill="#263238"/>
<path d="M240.487 102.317L234.095 100.614C234.095 100.614 227.825 116.048 225.606 117.05C222.594 118.427 214.966 123.197 211.72 125.453C211.542 126.221 211.683 128.256 212.089 128.815C217.621 127.807 228.212 123.732 230.425 121.66C235.471 116.934 240.487 102.317 240.487 102.317Z" fill="#E58A7B"/>
<path d="M236.025 254.498C235.713 254.523 235.402 254.438 235.146 254.258C235.066 254.187 235.007 254.096 234.974 253.994C234.94 253.893 234.934 253.785 234.955 253.68C234.959 253.615 234.98 253.552 235.017 253.498C235.054 253.444 235.105 253.401 235.164 253.373C235.68 253.109 237.125 254.025 237.291 254.129C237.309 254.14 237.323 254.157 237.331 254.177C237.339 254.197 237.34 254.219 237.334 254.24C237.329 254.261 237.318 254.281 237.303 254.297C237.288 254.313 237.269 254.325 237.248 254.332C236.847 254.43 236.437 254.486 236.025 254.498ZM235.41 253.539C235.363 253.529 235.315 253.529 235.268 253.539C235.245 253.551 235.225 253.569 235.212 253.592C235.199 253.615 235.193 253.642 235.195 253.668C235.178 253.74 235.181 253.814 235.203 253.884C235.224 253.954 235.264 254.018 235.318 254.068C235.557 254.283 236.16 254.307 236.953 254.154C236.481 253.843 235.949 253.633 235.391 253.539H235.41Z" fill="#4CAF4F"/>
<path d="M237.217 254.332C237.201 254.337 237.184 254.337 237.168 254.332C236.707 254.074 235.84 253.059 235.969 252.543C235.989 252.461 236.035 252.388 236.101 252.336C236.166 252.284 236.248 252.255 236.332 252.254C236.414 252.243 236.498 252.25 236.578 252.275C236.657 252.299 236.731 252.34 236.793 252.396C237.303 252.832 237.334 254.172 237.334 254.24C237.337 254.26 237.333 254.28 237.323 254.298C237.313 254.316 237.297 254.33 237.279 254.338C237.258 254.342 237.236 254.34 237.217 254.332ZM236.393 252.457H236.35C236.209 252.457 236.191 252.537 236.184 252.568C236.111 252.869 236.658 253.637 237.113 254C237.11 253.481 236.95 252.975 236.652 252.549C236.58 252.487 236.488 252.454 236.393 252.457Z" fill="#4CAF4F"/>
<path d="M219.705 253.73C219.329 253.861 218.919 253.861 218.543 253.73C218.458 253.683 218.385 253.616 218.333 253.535C218.28 253.453 218.249 253.359 218.242 253.262C218.234 253.202 218.242 253.14 218.265 253.083C218.287 253.026 218.324 252.976 218.371 252.937C218.863 252.494 220.873 252.937 221.1 253.023C221.122 253.028 221.141 253.041 221.154 253.059C221.168 253.077 221.175 253.099 221.174 253.121C221.175 253.144 221.169 253.167 221.157 253.187C221.145 253.206 221.127 253.222 221.106 253.232C220.654 253.436 220.185 253.602 219.705 253.73ZM218.703 252.998C218.633 253.012 218.567 253.044 218.512 253.09C218.493 253.105 218.478 253.125 218.469 253.148C218.46 253.171 218.458 253.195 218.463 253.219C218.467 253.284 218.487 253.346 218.522 253.401C218.556 253.456 218.604 253.501 218.66 253.533C218.986 253.705 219.742 253.57 220.719 253.158C220.061 252.992 219.379 252.938 218.703 252.998Z" fill="#4CAF4F"/>
<path d="M221.088 253.232H221.039C220.424 253.121 219.195 252.414 219.158 251.885C219.158 251.763 219.213 251.59 219.508 251.492C219.608 251.457 219.714 251.442 219.819 251.448C219.925 251.454 220.028 251.482 220.123 251.529C220.787 251.855 221.137 253.035 221.156 253.09C221.16 253.109 221.159 253.128 221.154 253.147C221.149 253.165 221.139 253.181 221.125 253.195C221.116 253.21 221.103 253.222 221.088 253.232ZM219.631 251.676H219.57C219.379 251.744 219.379 251.824 219.379 251.849C219.379 252.168 220.271 252.752 220.891 252.949C220.748 252.455 220.446 252.023 220.031 251.72C219.907 251.657 219.765 251.641 219.631 251.676Z" fill="#4CAF4F"/>
<path d="M212.243 125.09L205.832 128.041L205.088 129.885L207.454 131.477C207.454 131.477 211.88 130.997 213.14 128.151L212.243 125.09Z" fill="#E58A7B"/>
<path d="M212.513 128.92C212.37 127.688 211.963 126.501 211.321 125.441L212.335 124.678C213.098 125.901 213.585 127.275 213.761 128.705L212.513 128.92Z" fill="#263238"/>
<path d="M213.607 125.963C213.743 126.176 213.809 126.426 213.798 126.678C213.787 126.931 213.698 127.173 213.543 127.374C213.389 127.574 213.177 127.721 212.936 127.796C212.695 127.872 212.436 127.871 212.196 127.794C211.955 127.717 211.744 127.568 211.591 127.367C211.438 127.165 211.351 126.922 211.341 126.67C211.332 126.417 211.4 126.168 211.537 125.956C211.674 125.744 211.873 125.579 212.108 125.484C212.37 125.35 212.675 125.325 212.956 125.415C213.237 125.505 213.471 125.702 213.607 125.963Z" fill="#263238"/>
<path d="M201.498 130.426L202.353 131.286L208.106 128.827L205.832 128.041L201.498 130.426Z" fill="#E58A7B"/>
<path opacity="0.2" d="M226.202 242.776C226.239 242.776 227.075 245.124 227.075 245.124L218.568 248.701L217.228 246.206L226.202 242.776Z" fill="black"/>
<path opacity="0.2" d="M243.591 245.757C243.628 245.757 243.874 248.124 243.874 248.124H234.555L233.892 245.407L243.591 245.757Z" fill="black"/>
<path d="M242.153 100.546C243.843 105.998 237.236 113.454 237.236 113.454L228.108 109.73C229.19 106.578 230.437 103.486 231.845 100.466C234.648 94.4241 240.444 95.045 242.153 100.546Z" fill="#4CAF4F"/>
<path opacity="0.2" d="M242.153 100.546C243.843 105.998 237.236 113.454 237.236 113.454L228.108 109.73C229.19 106.578 230.437 103.486 231.845 100.466C234.648 94.4241 240.444 95.045 242.153 100.546Z" fill="black"/>
<path d="M151.451 45.9201H147.524V46.5532H151.451V45.9201Z" fill="#4CAF4F"/>
<path d="M202.296 70.9782L201.821 81.5276L202.453 81.5561L202.929 71.0067L202.296 70.9782Z" fill="#4CAF4F"/>
<path d="M201.074 48.7599H128.543L121.793 199.798H194.325L201.074 48.7599Z" fill="#4CAF4F"/>
<path opacity="0.56" d="M198.911 50.8375H126.379L119.63 201.875H192.162L198.911 50.8375Z" fill="#FAFAFA"/>
<path opacity="0.07" d="M196.747 52.9089H124.215L117.46 203.947H189.992L196.747 52.9089Z" fill="#4CAF4F"/>
<path d="M188.492 118.784H126.582L126.065 130.34H187.975L188.492 118.784Z" fill="white"/>
<path d="M160.629 110.35H126.957L126.729 115.52H160.401L160.629 110.35Z" fill="#4CAF4F"/>
<path d="M187.097 149.972H125.186L124.67 161.528H186.58L187.097 149.972Z" fill="white"/>
<path opacity="0.47" d="M175.743 177.135H134.112L133.491 190.983H175.123L175.743 177.135Z" fill="#4CAF4F"/>
<path d="M172.959 193.135H131.327C131.309 193.139 131.29 193.139 131.272 193.135C131.266 193.117 131.266 193.097 131.272 193.079L131.886 179.225C131.886 179.215 131.888 179.206 131.892 179.197C131.896 179.189 131.901 179.181 131.908 179.175C131.915 179.168 131.923 179.163 131.932 179.16C131.941 179.157 131.951 179.156 131.96 179.157H173.592C173.6 179.153 173.608 179.151 173.617 179.151C173.625 179.151 173.634 179.153 173.641 179.157C173.646 179.165 173.648 179.173 173.648 179.182C173.648 179.19 173.646 179.199 173.641 179.206L173.039 193.092C173.031 193.106 173.02 193.118 173.006 193.126C172.991 193.133 172.975 193.137 172.959 193.135ZM131.401 192.987H172.885L173.5 179.28H132.015L131.401 192.987Z" fill="white"/>
<path d="M153.357 141.539H125.561L125.334 146.715H153.123L153.357 141.539Z" fill="#4CAF4F"/>
<path d="M174.95 81.4544C174.792 84.8176 173.596 88.049 171.527 90.7053C169.995 92.7117 168.024 94.3405 165.766 95.4668C163.507 96.593 161.02 97.1868 158.496 97.2024C156.456 97.218 154.435 96.8158 152.556 96.0206C150.678 95.2254 148.982 94.054 147.574 92.5787C146.165 91.1034 145.074 89.3553 144.366 87.4421C143.659 85.529 143.351 83.4912 143.461 81.4544C143.677 77.2279 145.499 73.2437 148.556 70.3164C151.612 67.3892 155.671 65.7401 159.903 65.7065C161.944 65.6874 163.968 66.0872 165.849 66.881C167.729 67.6748 169.427 68.8458 170.837 70.3217C172.248 71.7976 173.34 73.547 174.048 75.4618C174.755 77.3766 175.062 79.4162 174.95 81.4544Z" fill="white"/>
<path d="M176.432 69.0011C176.392 69.8954 176.074 70.7548 175.522 71.4598C175.114 71.9927 174.59 72.4253 173.989 72.7247C173.388 73.024 172.727 73.1822 172.055 73.1871C171.405 73.191 170.764 73.0357 170.187 72.7346C169.611 72.4335 169.117 71.9958 168.749 71.4598C168.261 70.7355 168.019 69.8734 168.06 69.0011C168.12 67.879 168.605 66.8218 169.417 66.0451C170.229 65.2684 171.307 64.8307 172.43 64.8213C172.973 64.8164 173.51 64.9225 174.009 65.1331C174.509 65.3437 174.96 65.6544 175.335 66.046C175.71 66.4376 176.001 66.9018 176.189 67.4101C176.378 67.9183 176.461 68.4598 176.432 69.0011Z" fill="#4CAF4F"/>
<path d="M133.251 124.562C133.221 125.057 133.005 125.523 132.646 125.865C132.287 126.207 131.811 126.4 131.315 126.406C131.075 126.408 130.838 126.362 130.617 126.27C130.396 126.177 130.196 126.04 130.03 125.867C129.864 125.694 129.735 125.489 129.652 125.265C129.568 125.04 129.532 124.801 129.544 124.562C129.571 124.065 129.786 123.598 130.146 123.255C130.506 122.912 130.984 122.72 131.481 122.718C131.72 122.716 131.957 122.763 132.178 122.855C132.398 122.948 132.597 123.085 132.763 123.258C132.929 123.431 133.058 123.635 133.142 123.86C133.225 124.084 133.263 124.323 133.251 124.562Z" fill="#263238"/>
<path d="M141.537 124.562C141.509 125.057 141.293 125.524 140.933 125.866C140.574 126.209 140.097 126.402 139.601 126.406C139.361 126.408 139.125 126.361 138.904 126.268C138.684 126.175 138.485 126.038 138.32 125.865C138.155 125.692 138.027 125.487 137.943 125.263C137.86 125.039 137.824 124.8 137.836 124.562C137.863 124.066 138.077 123.6 138.436 123.257C138.795 122.915 139.271 122.722 139.766 122.718C140.006 122.715 140.244 122.761 140.465 122.854C140.686 122.946 140.885 123.083 141.051 123.256C141.217 123.429 141.346 123.634 141.429 123.859C141.513 124.083 141.549 124.322 141.537 124.562Z" fill="#263238"/>
<path d="M149.829 124.562C149.801 125.057 149.585 125.524 149.225 125.866C148.866 126.209 148.389 126.402 147.892 126.406C147.653 126.408 147.416 126.361 147.195 126.268C146.975 126.175 146.776 126.038 146.61 125.865C146.444 125.693 146.315 125.488 146.232 125.264C146.148 125.04 146.111 124.801 146.122 124.562C146.15 124.066 146.366 123.599 146.726 123.257C147.085 122.914 147.562 122.721 148.058 122.718C148.298 122.715 148.536 122.761 148.757 122.854C148.978 122.946 149.177 123.083 149.343 123.256C149.509 123.429 149.638 123.634 149.721 123.859C149.805 124.083 149.841 124.322 149.829 124.562Z" fill="#263238"/>
<path d="M131.856 155.75C131.826 156.246 131.61 156.711 131.251 157.053C130.891 157.396 130.416 157.589 129.919 157.594C129.68 157.596 129.443 157.549 129.222 157.456C129.002 157.363 128.803 157.226 128.637 157.054C128.471 156.881 128.342 156.676 128.258 156.452C128.175 156.228 128.137 155.989 128.149 155.75C128.177 155.254 128.393 154.788 128.753 154.445C129.112 154.103 129.589 153.91 130.085 153.906C130.325 153.904 130.562 153.951 130.782 154.044C131.003 154.137 131.202 154.274 131.368 154.447C131.534 154.619 131.662 154.824 131.746 155.048C131.83 155.272 131.867 155.511 131.856 155.75Z" fill="#263238"/>
<path d="M140.141 155.75C140.113 156.245 139.899 156.711 139.54 157.053C139.182 157.395 138.707 157.589 138.211 157.594C137.972 157.597 137.734 157.551 137.513 157.458C137.292 157.366 137.093 157.229 136.927 157.056C136.761 156.883 136.632 156.678 136.549 156.453C136.465 156.229 136.429 155.989 136.441 155.75C136.469 155.254 136.685 154.788 137.045 154.445C137.404 154.103 137.881 153.91 138.377 153.906C138.616 153.904 138.853 153.951 139.074 154.044C139.294 154.137 139.493 154.274 139.658 154.447C139.823 154.62 139.951 154.824 140.035 155.049C140.118 155.273 140.154 155.511 140.141 155.75Z" fill="#263238"/>
<path d="M148.452 155.75C148.424 156.246 148.208 156.713 147.848 157.055C147.489 157.398 147.012 157.59 146.516 157.594C146.277 157.595 146.04 157.548 145.82 157.455C145.6 157.361 145.401 157.224 145.235 157.052C145.07 156.879 144.941 156.675 144.857 156.451C144.772 156.228 144.735 155.989 144.745 155.75C144.775 155.255 144.991 154.789 145.351 154.447C145.71 154.105 146.186 153.912 146.682 153.906C146.921 153.903 147.159 153.95 147.38 154.042C147.601 154.135 147.8 154.272 147.966 154.445C148.132 154.618 148.261 154.823 148.344 155.047C148.428 155.272 148.465 155.511 148.452 155.75Z" fill="#263238"/>
<path d="M156.725 155.75C156.696 156.246 156.48 156.711 156.12 157.053C155.761 157.396 155.285 157.589 154.789 157.594C154.55 157.595 154.313 157.548 154.093 157.455C153.873 157.361 153.674 157.224 153.509 157.052C153.343 156.879 153.214 156.675 153.13 156.451C153.046 156.228 153.008 155.989 153.019 155.75C153.048 155.255 153.265 154.789 153.624 154.447C153.983 154.105 154.459 153.912 154.955 153.906C155.194 153.904 155.432 153.951 155.652 154.044C155.873 154.137 156.072 154.274 156.238 154.447C156.403 154.619 156.532 154.824 156.616 155.048C156.7 155.272 156.737 155.511 156.725 155.75Z" fill="#263238"/>
<path d="M165.048 155.75C165.019 156.246 164.802 156.711 164.443 157.053C164.084 157.396 163.608 157.589 163.112 157.594C162.872 157.597 162.635 157.551 162.414 157.458C162.193 157.366 161.993 157.229 161.827 157.056C161.661 156.883 161.533 156.678 161.449 156.453C161.365 156.229 161.329 155.989 161.342 155.75C161.37 155.254 161.585 154.788 161.945 154.445C162.305 154.103 162.781 153.91 163.278 153.906C163.517 153.904 163.754 153.951 163.975 154.044C164.195 154.137 164.395 154.274 164.56 154.447C164.726 154.619 164.855 154.824 164.939 155.048C165.023 155.272 165.06 155.511 165.048 155.75Z" fill="#263238"/>
<path d="M163.79 80.6343C166.363 78.1184 166.499 74.0857 164.095 71.627C161.691 69.1683 157.656 69.2147 155.083 71.7306C152.51 74.2465 152.374 78.2792 154.778 80.7379C157.183 83.1966 161.217 83.1502 163.79 80.6343Z" fill="#4CAF4F"/>
<path d="M171.527 90.7053C169.995 92.7117 168.024 94.3405 165.766 95.4668C163.507 96.593 161.02 97.1868 158.496 97.2024C156.048 97.2232 153.633 96.6414 151.463 95.5083C149.294 94.3753 147.436 92.7258 146.055 90.7053C149.042 87.7303 153.769 85.7879 159.006 85.7879C164.243 85.7879 168.804 87.7303 171.527 90.7053Z" fill="#4CAF4F"/>
<path opacity="0.1" d="M163.79 80.6343C166.363 78.1184 166.499 74.0857 164.095 71.627C161.691 69.1683 157.656 69.2147 155.083 71.7306C152.51 74.2465 152.374 78.2792 154.778 80.7379C157.183 83.1966 161.217 83.1502 163.79 80.6343Z" fill="white"/>
<path opacity="0.1" d="M171.527 90.7053C169.995 92.7117 168.024 94.3405 165.766 95.4668C163.507 96.593 161.02 97.1868 158.496 97.2024C156.048 97.2232 153.633 96.6414 151.463 95.5083C149.294 94.3753 147.436 92.7258 146.055 90.7053C149.042 87.7303 153.769 85.7879 159.006 85.7879C164.243 85.7879 168.804 87.7303 171.527 90.7053Z" fill="white"/>
<path d="M81.0897 133.124C80.5057 134.403 79.8911 135.81 79.3563 137.175C78.8215 138.539 78.2745 139.947 77.8012 141.348C76.8348 144.11 76.0988 146.948 75.6006 149.831L75.4654 150.734C75.4525 150.889 75.4671 151.046 75.5084 151.195C75.6535 151.705 75.882 152.187 76.1846 152.622C76.9739 153.747 77.8896 154.778 78.9137 155.695C79.9935 156.699 81.1261 157.645 82.3067 158.529C83.4869 159.438 84.7286 160.323 85.9518 161.159L84.8023 163.317C81.8815 162.044 79.1091 160.455 76.5349 158.578C75.1616 157.576 73.9222 156.403 72.8469 155.086C72.2095 154.303 71.7125 153.415 71.3778 152.462C71.1832 151.866 71.0836 151.244 71.0828 150.618C71.0828 150.47 71.0828 150.255 71.0828 150.151V149.849L71.1442 149.235C71.4966 146.032 72.17 142.873 73.1542 139.806C73.6337 138.293 74.1438 136.787 74.7278 135.318C75.3117 133.849 75.9141 132.411 76.6579 130.917L81.0897 133.124Z" fill="#E58A7B"/>
<path d="M85.0852 160.778L89.4309 158.578L88.3061 163.348C88.3061 163.348 85.3249 164.184 83.9419 162.733L85.0852 160.778Z" fill="#E58A7B"/>
<path d="M93.4077 159.358L92.2521 163.305L88.3059 163.348L89.4308 158.578L93.4077 159.358Z" fill="#E58A7B"/>
<path d="M99.5423 110.111C99.7748 110.962 100.098 111.787 100.507 112.569C100.388 112.705 100.234 112.806 100.062 112.861C99.8898 112.916 99.7061 112.924 99.53 112.883L99.5423 110.111Z" fill="#DF5753"/>
<path d="M99.4132 110.147C99.6678 110.147 99.8742 109.831 99.8742 109.441C99.8742 109.05 99.6678 108.734 99.4132 108.734C99.1585 108.734 98.9521 109.05 98.9521 109.441C98.9521 109.831 99.1585 110.147 99.4132 110.147Z" fill="#263238"/>
<path d="M99.2778 108.758L100.212 108.494C100.212 108.494 99.7573 109.219 99.2778 108.758Z" fill="#263238"/>
<path d="M87.5377 114.622C88.0971 117.481 88.6564 122.724 86.6526 124.635C86.6526 124.635 87.4394 127.537 92.7563 127.537C98.6019 127.537 95.5469 124.635 95.5469 124.635C92.3568 123.873 92.4367 121.507 92.996 119.282L87.5377 114.622Z" fill="#E58A7B"/>
<path d="M85.9825 108.107C86.2776 112.883 86.3021 114.911 88.7117 117.364C92.3444 121.052 98.1469 119.65 99.2841 114.905C100.311 110.602 99.659 103.521 94.9814 101.622C93.9546 101.199 92.8369 101.045 91.734 101.174C90.631 101.304 89.5794 101.712 88.6785 102.362C87.7775 103.011 87.0571 103.879 86.5854 104.885C86.1136 105.89 85.9061 106.999 85.9825 108.107Z" fill="#E58A7B"/>
<path d="M86.4557 102.734C84.0585 103.607 80.8622 102.956 82.1161 110.35C83.4438 118.181 81.4031 120.757 81.4031 120.757C81.4031 120.757 90.4941 122.693 99.7757 120.64C99.7757 120.64 96.9421 115.686 97.735 112.035C98.7492 107.424 97.9501 105.722 97.9501 105.722C97.9501 105.722 89.8241 101.505 86.4557 102.734Z" fill="#263238"/>
<path d="M96.5979 110.596C96.6004 111.504 96.8604 112.393 97.3478 113.159C97.9994 114.155 98.7677 113.774 98.9583 112.717C99.1304 111.789 99.0013 110.147 98.1715 109.508C97.3417 108.869 96.6102 109.496 96.5979 110.596Z" fill="#E58A7B"/>
<path d="M84.3719 103.54C83.6835 101.603 86.9659 98.6223 93.9117 99.8517C100.858 101.081 101.159 106.865 101.159 106.865L99.7573 105.193L99.8187 106.951L92.6824 108.322L84.3719 103.54Z" fill="#263238"/>
<path d="M84.9621 124.961C84.9211 124.681 84.9913 124.395 85.1578 124.165C85.3243 123.936 85.5739 123.78 85.8534 123.732C88.017 123.375 92.9344 122.65 95.4054 122.994C97.2495 123.252 97.7289 124.322 97.8088 125.201C97.8213 125.355 97.8007 125.51 97.7485 125.655C97.6962 125.8 97.6134 125.933 97.5056 126.043C97.3979 126.154 97.2678 126.24 97.1239 126.296C96.9801 126.352 96.8259 126.377 96.6717 126.369L85.9886 125.889C85.7368 125.877 85.497 125.777 85.31 125.608C85.1229 125.439 85 125.21 84.9621 124.961Z" fill="#4CAF4F"/>
<path opacity="0.6" d="M84.9621 124.961C84.9211 124.681 84.9913 124.395 85.1578 124.165C85.3243 123.936 85.5739 123.78 85.8534 123.732C88.017 123.375 92.9344 122.65 95.4054 122.994C97.2495 123.252 97.7289 124.322 97.8088 125.201C97.8213 125.355 97.8007 125.51 97.7485 125.655C97.6962 125.8 97.6134 125.933 97.5056 126.043C97.3979 126.154 97.2678 126.24 97.1239 126.296C96.9801 126.352 96.8259 126.377 96.6717 126.369L85.9886 125.889C85.7368 125.877 85.497 125.777 85.31 125.608C85.1229 125.439 85 125.21 84.9621 124.961Z" fill="black"/>
<path d="M91.1396 232.345L95.1043 235.099L101.737 226.106L97.772 223.358L91.1396 232.345Z" fill="#E58A7B"/>
<path d="M81.895 232.167L86.081 234.552L91.9511 225.043L87.7652 222.658L81.895 232.167Z" fill="#E58A7B"/>
<path d="M101.73 226.106L98.3128 230.741L94.3481 227.993L97.7657 223.358L101.73 226.106Z" fill="#CF6F64"/>
<path d="M87.7588 222.658L91.9509 225.049L88.9267 229.948L84.7346 227.557L87.7588 222.658Z" fill="#CF6F64"/>
<path d="M94.4835 154.982C94.4835 154.982 109.961 174.486 107.054 193.141C104.712 208.207 91.1274 228.608 91.1274 228.608L84.7409 225.436C89.2425 216.416 93.084 207.081 96.2354 197.505C97.2071 194.532 97.4908 191.377 97.0648 188.279C96.6389 185.18 95.5146 182.219 93.7767 179.618C85.9334 168.167 73.3694 174.983 81.8212 154.982H94.4835Z" fill="#4CAF4F"/>
<path opacity="0.6" d="M94.4835 154.982C94.4835 154.982 109.961 174.486 107.054 193.141C104.712 208.207 91.1274 228.608 91.1274 228.608L84.7409 225.436C89.2425 216.416 93.084 207.081 96.2354 197.505C97.2071 194.532 97.4908 191.377 97.0648 188.279C96.6389 185.18 95.5146 182.219 93.7767 179.618C85.9334 168.167 73.3694 174.983 81.8212 154.982H94.4835Z" fill="black"/>
<path opacity="0.4" d="M102.075 167.509L99.825 165.272C99.825 165.45 104.183 192.354 105.406 199.915C106.128 197.706 106.681 195.446 107.06 193.153C108.498 184.001 105.492 174.651 102.075 167.509Z" fill="black"/>
<path d="M101.392 154.982C101.392 154.982 120.029 179.495 120.558 194.192C120.994 206.486 100.274 230.304 100.274 230.304L94.2499 226.407C94.2499 226.407 106.377 209.491 109.432 195.673C108.252 181.978 83.2964 154.982 83.2964 154.982H101.392Z" fill="#4CAF4F"/>
<path opacity="0.6" d="M101.392 154.982C101.392 154.982 120.029 179.495 120.558 194.192C120.994 206.486 100.274 230.304 100.274 230.304L94.2499 226.407C94.2499 226.407 106.377 209.491 109.432 195.673C108.252 181.978 83.2964 154.982 83.2964 154.982H101.392Z" fill="black"/>
<path d="M78.336 125.729C76.3445 126.203 74.4329 133.444 74.4329 133.444L82.2208 138.644C82.2208 138.644 84.8147 132.915 83.905 130.407C82.9646 127.795 80.8378 125.133 78.336 125.729Z" fill="#4CAF4F"/>
<path opacity="0.2" d="M79.8603 130.395L79.3193 136.708L82.2145 138.65C83.0138 136.85 83.6057 134.965 83.9786 133.032L79.8603 130.395Z" fill="black"/>
<path d="M103.697 125.871C103.697 125.871 105.996 126.676 101.392 154.976H81.8089C82.1408 146.985 82.1469 142.068 78.3359 125.729C81.0781 125.164 83.8575 124.799 86.6525 124.635C89.6135 124.423 92.5859 124.423 95.5468 124.635C99.3701 124.986 103.697 125.871 103.697 125.871Z" fill="#4CAF4F"/>
<path d="M105.689 130.395C106.132 131.624 106.599 132.946 107.09 134.218C107.582 135.491 108.049 136.8 108.547 138.091L110.053 141.951L110.434 142.916L110.631 143.395L110.723 143.635C110.723 143.678 110.723 143.678 110.723 143.672C110.611 143.514 110.464 143.383 110.293 143.291C110.05 143.148 109.776 143.065 109.494 143.051C109.26 143.044 109.027 143.088 108.812 143.18C108.529 143.309 108.529 143.365 108.535 143.358C108.586 143.317 108.632 143.27 108.67 143.217C109.01 142.77 109.305 142.29 109.549 141.785C109.838 141.219 110.115 140.617 110.391 140.008C110.932 138.779 111.43 137.507 111.928 136.222C112.426 134.937 112.899 133.64 113.36 132.331L114.762 128.409L117.128 129.024C116.661 131.827 116.059 134.556 115.333 137.335C114.983 138.718 114.571 140.088 114.104 141.471C113.87 142.166 113.612 142.854 113.317 143.561C113.01 144.328 112.631 145.065 112.186 145.762C112.023 145.996 111.842 146.218 111.645 146.426C111.331 146.765 110.95 147.035 110.527 147.219C110.15 147.38 109.743 147.456 109.334 147.44C108.876 147.423 108.43 147.29 108.037 147.053C107.574 146.764 107.19 146.364 106.918 145.891C106.826 145.731 106.746 145.571 106.691 145.454L106.574 145.221L106.341 144.741L105.873 143.789C105.259 142.51 104.644 141.219 104.109 139.922C103.575 138.625 103.009 137.31 102.48 135.988C101.952 134.667 101.478 133.345 101.03 131.919L105.689 130.395Z" fill="#E58A7B"/>
<path d="M103.697 125.871C106.052 126.43 108.701 133.388 108.701 133.388L101.7 139.345C101.7 139.345 97.1695 131.759 98.0854 129.258C99.0381 126.651 100.624 125.139 103.697 125.871Z" fill="#4CAF4F"/>
<path d="M115.874 126.209L118.333 124.156L120.042 126.817L118.782 129.036C118.782 129.036 116.778 130.88 115.008 129.94C114.727 129.308 114.659 128.602 114.816 127.929C114.972 127.256 115.344 126.652 115.874 126.209Z" fill="#E58A7B"/>
<path d="M122.771 124.162L122.586 124.832L118.696 125.484L118.314 124.156L122.771 124.162Z" fill="#E58A7B"/>
<path d="M100.753 230.618L93.7336 226.081L94.9937 223.893L102.88 228.743L100.753 230.618Z" fill="#4CAF4F"/>
<path d="M88.8284 234.232C88.2125 234.157 87.6207 233.947 87.095 233.617C87.0733 233.61 87.0545 233.596 87.0412 233.577C87.0279 233.558 87.0208 233.536 87.0208 233.513C87.0208 233.49 87.0279 233.467 87.0412 233.449C87.0545 233.43 87.0733 233.416 87.095 233.408C87.2856 233.347 88.9391 232.837 89.4185 233.23C89.4724 233.275 89.5133 233.333 89.5371 233.399C89.5609 233.465 89.5666 233.536 89.5537 233.605C89.5452 233.716 89.5085 233.822 89.4472 233.915C89.3859 234.007 89.302 234.083 89.2034 234.134C89.0883 234.196 88.9595 234.23 88.8284 234.232ZM87.4454 233.556C88.2137 233.949 88.8284 234.091 89.1235 233.943C89.1877 233.907 89.2418 233.856 89.2805 233.794C89.3192 233.731 89.3414 233.66 89.3447 233.587C89.3447 233.488 89.3447 233.445 89.2894 233.421C89.0313 233.212 88.1092 233.371 87.4331 233.556H87.4454Z" fill="#263238"/>
<path d="M87.1381 233.66C87.1057 233.66 87.0747 233.647 87.052 233.623C87.0429 233.606 87.0381 233.587 87.0381 233.568C87.0381 233.549 87.0429 233.53 87.052 233.513C87.052 233.457 87.4516 232.124 88.0785 231.822C88.1586 231.786 88.2456 231.767 88.3336 231.767C88.4216 231.767 88.5086 231.786 88.5887 231.822C88.675 231.85 88.7498 231.905 88.801 231.98C88.8522 232.054 88.877 232.144 88.8715 232.234C88.8284 232.787 87.7036 233.55 87.1873 233.679L87.1381 233.66ZM88.3305 231.982C88.2708 231.984 88.2121 231.999 88.1584 232.025C87.7773 232.21 87.4639 232.929 87.3102 233.365C87.8511 233.138 88.5949 232.535 88.6194 232.197C88.6194 232.142 88.6194 232.074 88.4781 232.013C88.4321 231.988 88.3822 231.972 88.3305 231.964V231.982Z" fill="#263238"/>
<path d="M97.5999 236.887C96.9053 236.887 95.9403 235.996 95.4116 235.449C95.3981 235.43 95.3909 235.408 95.3909 235.384C95.3909 235.361 95.3981 235.339 95.4116 235.32C95.4238 235.3 95.441 235.284 95.4616 235.273C95.4821 235.262 95.5052 235.257 95.5284 235.258C95.7743 235.258 97.9072 235.578 98.2084 236.18C98.2403 236.234 98.2571 236.296 98.2571 236.359C98.2571 236.421 98.2403 236.483 98.2084 236.537C98.1632 236.631 98.095 236.712 98.0101 236.772C97.9251 236.832 97.8263 236.87 97.7228 236.881L97.5999 236.887ZM95.8173 235.535C96.5918 236.285 97.2741 236.703 97.6613 236.654C97.7292 236.645 97.7938 236.62 97.8495 236.58C97.9052 236.54 97.9504 236.487 97.981 236.426C97.9947 236.405 98.0021 236.381 98.0021 236.356C98.0021 236.331 97.9947 236.306 97.981 236.285C97.8212 235.953 96.684 235.67 95.8173 235.535Z" fill="#263238"/>
<path d="M95.8849 235.504C95.7469 235.508 95.6089 235.498 95.4731 235.474C95.4541 235.471 95.4362 235.463 95.4211 235.451C95.406 235.439 95.3943 235.424 95.387 235.406C95.3778 235.388 95.373 235.368 95.373 235.348C95.373 235.327 95.3778 235.307 95.387 235.289C95.4239 235.246 96.2537 234.244 97.0405 234.177C97.2632 234.159 97.4839 234.23 97.6552 234.373C97.8949 234.582 97.8826 234.767 97.8211 234.883C97.6675 235.301 96.6041 235.504 95.8849 235.504ZM95.7251 235.277C96.4135 235.314 97.5138 235.086 97.6552 234.785C97.6552 234.785 97.7043 234.687 97.5445 234.552C97.4809 234.496 97.4066 234.455 97.3263 234.429C97.2459 234.404 97.1612 234.395 97.0774 234.404C96.5474 234.552 96.0754 234.859 95.7251 235.283V235.277Z" fill="#263238"/>
<path d="M87.304 232.996L82.0915 231.521C82.0017 231.494 81.9049 231.501 81.8199 231.541C81.7348 231.58 81.6673 231.65 81.6305 231.736L79.8725 235.689C79.8312 235.79 79.8119 235.899 79.8157 236.008C79.8194 236.117 79.8463 236.224 79.8945 236.323C79.9427 236.421 80.0111 236.508 80.0953 236.577C80.1794 236.647 80.2774 236.698 80.3827 236.728C82.2267 237.207 83.1119 237.342 85.4046 238C86.8184 238.393 88.8345 239.125 90.783 239.678C92.7315 240.231 93.3831 238.332 92.627 237.926C89.2094 236.119 88.939 234.853 88.0047 233.5C87.8373 233.256 87.5894 233.077 87.304 232.996Z" fill="#4CAF4F"/>
<path d="M95.5529 234.73L91.1027 231.656C91.0272 231.601 90.9342 231.576 90.8413 231.585C90.7484 231.594 90.6621 231.637 90.5987 231.706L87.6482 234.877C87.5763 234.959 87.5227 235.056 87.4909 235.16C87.4591 235.264 87.4499 235.374 87.4638 235.482C87.4778 235.59 87.5146 235.694 87.5718 235.787C87.6291 235.88 87.7054 235.96 87.7957 236.021C89.3632 237.072 90.1745 237.496 92.1353 238.854C93.3647 239.69 95.7435 241.547 97.4031 242.702C99.0627 243.858 100.298 242.272 99.7081 241.645C97.065 238.824 96.4872 237.053 96.0508 235.449C95.9751 235.158 95.7987 234.903 95.5529 234.73Z" fill="#4CAF4F"/>
<path d="M91.9449 229.013L83.9233 225.024L84.7531 222.848L93.3217 227.053L91.9449 229.013Z" fill="#4CAF4F"/>
<path d="M81.5138 153.826L80.8377 155.597C80.7701 155.732 80.9299 155.873 81.1573 155.873H101.491C101.669 155.873 101.817 155.787 101.829 155.676L102.001 153.918C102.001 153.802 101.86 153.697 101.669 153.697H81.8334C81.7737 153.692 81.7135 153.7 81.6579 153.723C81.6023 153.745 81.5529 153.781 81.5138 153.826Z" fill="#4CAF4F"/>
<path opacity="0.4" d="M81.5138 153.826L80.8377 155.597C80.7701 155.732 80.9299 155.873 81.1573 155.873H101.491C101.669 155.873 101.817 155.787 101.829 155.676L102.001 153.918C102.001 153.802 101.86 153.697 101.669 153.697H81.8334C81.7737 153.692 81.7135 153.7 81.6579 153.723C81.6023 153.745 81.5529 153.781 81.5138 153.826Z" fill="white"/>
<path d="M84.7163 156.045H84.1815C84.077 156.045 83.9971 155.99 84.0033 155.922L84.2553 153.642C84.2553 153.58 84.3536 153.525 84.4581 153.525H84.9929C85.0974 153.525 85.1773 153.58 85.1712 153.642L84.9191 155.922C84.913 155.99 84.8208 156.045 84.7163 156.045Z" fill="#4CAF4F"/>
<path d="M97.2556 156.045H96.7269C96.6224 156.045 96.5425 155.99 96.5487 155.922L96.7945 153.642C96.7945 153.58 96.899 153.525 97.0035 153.525H97.5322C97.6367 153.525 97.7227 153.58 97.7104 153.642L97.4645 155.922C97.4338 155.99 97.3662 156.045 97.2556 156.045Z" fill="#4CAF4F"/>
<g style="mix-blend-mode:multiply">
<path d="M84.2491 260.14C93.3437 260.14 100.716 259.607 100.716 258.948C100.716 258.289 93.3437 257.756 84.2491 257.756C75.1546 257.756 67.782 258.289 67.782 258.948C67.782 259.607 75.1546 260.14 84.2491 260.14Z" fill="#F5F5F5"/>
</g>
<path d="M94.2806 257.264C91.3671 256.416 88.1339 255.328 86.1792 254.19C86.1239 254.154 86.0624 254.135 86.0071 254.104V240.913H91.9018C92.3493 240.887 92.7698 240.691 93.0772 240.364C93.3847 240.038 93.5559 239.607 93.5559 239.159C93.5559 238.71 93.3847 238.279 93.0772 237.953C92.7698 237.627 92.3493 237.43 91.9018 237.404H86.0378V177.276H82.4973V237.404H76.6395C76.4003 237.389 76.1607 237.424 75.9355 237.506C75.7103 237.588 75.5041 237.715 75.3298 237.879C75.1554 238.044 75.0165 238.242 74.9215 238.462C74.8266 238.682 74.7776 238.919 74.7776 239.159C74.7776 239.398 74.8266 239.635 74.9215 239.855C75.0165 240.075 75.1554 240.273 75.3298 240.438C75.5041 240.602 75.7103 240.729 75.9355 240.811C76.1607 240.893 76.4003 240.928 76.6395 240.913H82.4973V254.086C82.442 254.086 82.3867 254.135 82.3314 254.172C80.3459 255.328 77.1373 256.416 74.2238 257.245C74.027 257.305 73.858 257.433 73.7474 257.606C73.6368 257.78 73.5919 257.987 73.6209 258.19C73.6499 258.394 73.7508 258.58 73.9053 258.716C74.0599 258.852 74.2579 258.927 74.4635 258.93H94.0409C94.2374 258.916 94.4233 258.836 94.5677 258.702C94.7121 258.568 94.8061 258.389 94.8342 258.194C94.8622 257.999 94.8226 257.8 94.7218 257.631C94.6211 257.462 94.4654 257.332 94.2806 257.264Z" fill="#E0E0E0"/>
<path d="M95.1842 171.154H73.3264C71.5679 171.154 70.1423 172.58 70.1423 174.338V180.835C70.1423 182.594 71.5679 184.019 73.3264 184.019H95.1842C96.9427 184.019 98.3682 182.594 98.3682 180.835V174.338C98.3682 172.58 96.9427 171.154 95.1842 171.154Z" fill="#4CAF4F"/>
<path d="M73.1235 184.025V185.144C73.1235 186.066 74.1255 186.816 75.3548 186.816H93.1804C94.4097 186.816 95.4117 186.066 95.4117 185.144V184.025H73.1235Z" fill="#4CAF4F"/>
<path opacity="0.3" d="M73.1235 184.025V185.144C73.1235 186.066 74.1255 186.816 75.3548 186.816H93.1804C94.4097 186.816 95.4117 186.066 95.4117 185.144V184.025H73.1235Z" fill="white"/>
</svg>
