<svg width="46" height="40" viewBox="0 0 46 40" fill="none" xmlns="http://www.w3.org/2000/svg">
<path d="M45.9187 26.5507C45.9187 33.4704 40.3092 39.08 33.3894 39.08L14.5956 39.08C12.6734 39.08 11.1152 37.5217 11.1152 35.5996L11.1152 11.9332C11.1152 8.08896 14.2316 4.97255 18.0759 4.97255L42.4384 4.97255C44.3605 4.97255 45.9187 6.53076 45.9187 8.4529L45.9187 26.5507Z" fill="#E8F5E9"/>
<path d="M17.3728 7.06079C14.8869 7.06079 12.8632 9.10298 12.8632 11.5994C12.8632 13.1787 13.6742 14.5731 14.8988 15.3859C13.4197 15.8804 12.1399 16.8047 11.2013 18.0139C10.6823 17.6147 10.1024 17.2937 9.47729 17.0637C10.4252 16.3599 11.0447 15.2294 11.0447 13.9588C11.0447 11.8416 9.33233 10.1083 7.22789 10.1083C5.12346 10.1083 3.41107 11.8416 3.41107 13.9588C3.41107 15.2301 4.03106 16.3611 4.97981 17.0649C2.46799 17.9918 0.674072 20.4185 0.674072 23.2745V25.2807C0.674329 25.4336 0.735505 25.5802 0.843975 25.6879C0.952444 25.7958 1.09922 25.856 1.25216 25.8555H10.0539C10.0753 25.8578 10.0966 25.8591 10.1179 25.8588H24.6281C24.6494 25.8591 24.671 25.8578 24.6921 25.8555H33.4945C33.8109 25.8542 34.0672 25.5974 34.068 25.2807V23.2745C34.068 20.4185 32.2772 17.9918 29.7667 17.0646C30.7154 16.3611 31.3354 15.2299 31.3354 13.9586C31.3354 11.8413 29.623 10.108 27.5186 10.108C25.4142 10.108 23.7017 11.8413 23.7017 13.9586C23.7017 15.2291 24.3215 16.3598 25.2694 17.0634C24.643 17.294 24.0629 17.616 23.5432 18.0162C22.605 16.8063 21.3269 15.8807 19.8479 15.3859C21.0722 14.5731 21.8835 13.1787 21.8835 11.5994C21.8835 9.10298 19.8587 7.06079 17.3729 7.06079H17.3728ZM17.3728 8.21234C19.232 8.21234 20.7307 9.72119 20.7307 11.5994C20.7307 13.4629 19.2553 14.9571 17.4167 14.9811C17.4021 14.9811 17.3877 14.979 17.3728 14.979C17.3579 14.979 17.3437 14.9811 17.3288 14.9811C15.4902 14.9574 14.0158 13.463 14.0158 11.5994C14.0158 9.72093 15.5133 8.21234 17.3725 8.21234H17.3728ZM7.22796 11.2598C8.70312 11.2598 9.89323 12.4571 9.89323 13.9588C9.89323 15.4504 8.71852 16.6425 7.25724 16.6587C7.24747 16.6587 7.23796 16.6577 7.22794 16.6577C7.21817 16.6577 7.20866 16.6587 7.19864 16.6587C5.73735 16.6425 4.56264 15.4501 4.56264 13.9588C4.56264 12.4571 5.75275 11.2598 7.22792 11.2598H7.22796ZM27.5182 11.2598C28.9934 11.2598 30.1835 12.4571 30.1835 13.9588C30.1835 15.4504 29.0088 16.6425 27.5475 16.6587C27.5377 16.6587 27.5282 16.6577 27.5182 16.6577C27.5084 16.6577 27.4989 16.6587 27.4889 16.6587C26.0276 16.6425 24.8529 15.4501 24.8529 13.9588C24.8529 12.4571 26.043 11.2598 27.5182 11.2598H27.5182ZM17.3287 16.1326C17.3433 16.1328 17.3577 16.1346 17.3726 16.1346C17.3873 16.1346 17.4017 16.1326 17.4166 16.1326C21.1038 16.1562 24.0548 19.1325 24.0548 22.8582L24.0545 24.7069H10.6913V22.8582C10.6913 19.1322 13.6414 16.1562 17.3282 16.1326H17.3287ZM7.18387 17.8116C7.19852 17.8118 7.21292 17.8136 7.22782 17.8136C7.24273 17.8136 7.25687 17.8116 7.27178 17.8116C8.51894 17.8216 9.65713 18.2516 10.5634 18.9711C9.91491 20.1186 9.53987 21.443 9.53987 22.8586V24.7028H1.82516V23.2745C1.82516 20.2465 4.2059 17.8352 7.18373 17.8113L7.18387 17.8116ZM27.4741 17.8116C27.489 17.8118 27.5032 17.8136 27.5181 17.8136C27.533 17.8136 27.5471 17.8116 27.562 17.8116C30.5399 17.8352 32.9206 20.2468 32.9206 23.2747V24.7028H25.202L25.2017 22.8586C25.2017 21.4438 24.8277 20.1203 24.1805 18.9731C25.087 18.2527 26.226 17.8216 27.4742 17.8116H27.4741Z" fill="#103E13"/>
</svg>
