<svg width="46" height="40" viewBox="0 0 46 40" fill="none" xmlns="http://www.w3.org/2000/svg">
<path d="M45.6658 27.4136C45.6658 34.3333 40.0562 39.9429 33.1365 39.9429L14.3426 39.9429C12.4205 39.9429 10.8623 38.3847 10.8623 36.4625L10.8623 12.7962C10.8623 8.95187 13.9787 5.83547 17.823 5.83547L42.1854 5.83547C44.1076 5.83547 45.6658 7.39367 45.6658 9.31581L45.6658 27.4136Z" fill="#E8F5E9"/>
<path d="M20.128 17.4214C19.9604 17.4214 19.8048 17.3753 19.6666 17.3012V17.3031C19.6666 17.5668 19.5641 17.8145 19.3781 17.9999C19.1921 18.1859 18.9447 18.2884 18.6813 18.2884C18.5112 18.2884 18.3536 18.2412 18.2139 18.1651C18.1998 18.4063 18.1034 18.6318 17.9313 18.804C17.7454 18.99 17.4979 19.0925 17.2343 19.0925C16.7107 19.0925 16.2855 18.6808 16.2548 18.1649C16.0928 18.2525 15.9096 18.2984 15.7207 18.2863C15.2056 18.2525 14.8022 17.8074 14.8022 17.2728V12.8412L14.2975 13.7154C14.1053 14.0498 13.7456 14.2574 13.3582 14.2574C13.1694 14.2574 12.983 14.2078 12.8178 14.1132C12.6122 13.994 12.4651 13.8026 12.4039 13.5737C12.3424 13.3446 12.3742 13.105 12.4931 12.8996C12.4933 12.8996 14.1442 10.0408 14.2449 9.86514C14.2569 9.83874 14.291 9.76216 14.32 9.69689C14.3477 9.63457 14.3715 9.57061 14.3943 9.50633C14.8922 8.10077 16.1249 7.22766 17.6117 7.22766C19.5424 7.22766 21.1131 8.93088 21.1131 11.0244L21.1132 16.4359C21.1132 16.6993 21.0109 16.9468 20.8251 17.1329C20.6391 17.3189 20.3917 17.4214 20.128 17.4214L20.128 17.4214ZM17.6117 7.75121C16.3342 7.75121 15.316 8.4728 14.8878 9.68142C14.8604 9.75817 14.8319 9.83491 14.7986 9.9097C14.702 10.1263 14.702 10.1263 14.6748 10.1575L14.6712 10.1544C14.5364 10.4087 14.1359 11.1022 12.9464 13.1617C12.8976 13.2461 12.8846 13.3442 12.9095 13.438C12.9348 13.5318 12.9953 13.6108 13.0791 13.6592C13.3392 13.8086 13.6954 13.7122 13.8436 13.4539L14.8373 11.7336C14.8966 11.6311 15.0167 11.5808 15.1318 11.6119C15.2463 11.6426 15.3258 11.7464 15.3258 11.8648V17.2729C15.3258 17.5281 15.5183 17.7483 15.755 17.7639C15.8914 17.7711 16.0187 17.7254 16.1143 17.6299C16.2012 17.543 16.2491 17.4272 16.2491 17.3034V13.7664C16.2491 13.6218 16.3664 13.5045 16.511 13.5045C16.6556 13.5045 16.7729 13.6216 16.7729 13.7664L16.7727 18.1074C16.7727 18.3619 16.9799 18.569 17.2344 18.569C17.358 18.569 17.4741 18.5211 17.5612 18.4342C17.6481 18.3471 17.696 18.231 17.696 18.1074V13.7664C17.696 13.6218 17.8131 13.5045 17.9579 13.5045C18.1025 13.5045 18.2198 13.6216 18.2198 13.7664L18.2196 17.2627V17.3034C18.2196 17.5578 18.4268 17.7649 18.6814 17.7649C18.8049 17.7649 18.9207 17.7168 19.0083 17.6296C19.0952 17.5428 19.1431 17.427 19.1431 17.3032V13.7662C19.1431 13.6216 19.2602 13.5044 19.405 13.5044C19.5496 13.5044 19.6669 13.6214 19.6669 13.7662L19.6665 16.4361C19.6665 16.6907 19.8737 16.8979 20.128 16.8979C20.2518 16.8979 20.3676 16.8498 20.4545 16.7631C20.5418 16.6758 20.5895 16.5597 20.5895 16.4361L20.5896 11.0246C20.5896 9.21984 19.2538 7.75126 17.6117 7.75126L17.6117 7.75121Z" fill="#103E13"/>
<path d="M9.83834 21.1825L13.6387 18.9026C14.0969 18.6274 14.6864 18.7444 14.9803 19.169C15.0876 19.3236 15.1423 19.5038 15.1509 19.6873C15.2925 19.6134 15.4467 19.5732 15.6036 19.5732C15.684 19.5732 15.7647 19.5832 15.8444 19.6031C16.0997 19.6668 16.3149 19.8264 16.4502 20.0521C16.5856 20.278 16.6252 20.5429 16.5614 20.7979C16.5025 21.0339 16.359 21.2325 16.1594 21.3688C16.299 21.4511 16.4193 21.5634 16.505 21.7064C16.6404 21.9324 16.6799 22.1971 16.6163 22.4525C16.5525 22.7075 16.3929 22.9226 16.167 23.0583L16.1657 23.0591C16.3028 23.1412 16.421 23.2524 16.5056 23.3933C16.6412 23.6193 16.6808 23.8841 16.617 24.1394C16.553 24.3946 16.3934 24.6098 16.1678 24.7452L11.5275 27.529C10.6615 28.0484 9.66028 28.2277 8.7088 28.0333C7.7488 27.8372 6.95374 27.2854 6.47032 26.4795C5.70528 25.2044 5.81993 23.698 6.76895 22.5482C6.81241 22.4958 6.85521 22.4423 6.89408 22.3869C6.93524 22.3283 6.98329 22.2594 6.99969 22.2358C7.09792 22.0604 8.7008 19.1724 8.70063 19.1728C8.86249 18.8807 9.16588 18.7154 9.47877 18.7156C9.62472 18.7156 9.77281 18.7515 9.90942 18.8272C10.0744 18.9194 10.213 19.0537 10.3099 19.2156C10.5091 19.5477 10.5162 19.9632 10.3286 20.2995L9.83834 21.1825ZM9.86114 19.4848C9.8103 19.4 9.74044 19.3324 9.655 19.2846C9.47838 19.1868 9.25601 19.2505 9.15877 19.4264C8.01182 21.4927 7.62084 22.1969 7.46996 22.4475L7.4734 22.4483C7.46077 22.4903 7.46077 22.4903 7.32269 22.6876C7.27579 22.7543 7.22479 22.8184 7.17281 22.8816C6.35676 23.8703 6.262 25.1145 6.91911 26.2101C7.32614 26.8887 7.99884 27.354 8.81338 27.5203C9.63678 27.6877 10.5046 27.5319 11.2579 27.0799L15.8986 24.296C16.0045 24.2326 16.0793 24.1317 16.1091 24.0122C16.139 23.8928 16.1205 23.7686 16.0568 23.6627C15.926 23.4446 15.6418 23.3729 15.4236 23.5043L13.1343 24.8777C13.0103 24.9522 12.8493 24.9122 12.775 24.788C12.7006 24.664 12.7407 24.5032 12.8647 24.4287L15.1542 23.0553L15.8978 22.6092C16.0037 22.5456 16.0786 22.4447 16.1085 22.3255C16.1383 22.206 16.1198 22.0816 16.0562 21.9759C15.9251 21.7576 15.6409 21.6866 15.423 21.8175L12.39 23.637C12.2657 23.7116 12.1051 23.6712 12.0307 23.5473C11.9562 23.4233 11.9965 23.2624 12.1204 23.188L15.8428 20.9549C15.9488 20.8913 16.0235 20.7906 16.0534 20.671C16.0832 20.5516 16.0647 20.4275 16.0012 20.3215C15.9378 20.2158 15.8369 20.141 15.7174 20.1111C15.5972 20.0813 15.4735 20.0998 15.3679 20.1631L14.6788 20.5766C14.6786 20.5766 14.6786 20.5767 14.6785 20.5767H14.6783L11.6454 22.3962C11.5211 22.471 11.3604 22.4307 11.2861 22.3065C11.2117 22.1825 11.252 22.0217 11.3758 21.9472L14.4089 20.1277C14.5148 20.0641 14.5898 19.9632 14.6196 19.844C14.6524 19.7131 14.6275 19.5793 14.5497 19.4671C14.4149 19.2722 14.1266 19.2203 13.908 19.3517L9.27071 22.1337C9.16919 22.1944 9.03915 22.1796 8.95404 22.0974C8.86876 22.0151 8.84957 21.8857 8.90697 21.7822L9.87126 20.0449C9.96801 19.8712 9.96424 19.6567 9.86109 19.4849L9.86114 19.4848Z" fill="#103E13"/>
<path d="M27.998 26.4793C27.5147 27.2853 26.7199 27.837 25.7597 28.0332C24.8081 28.2272 23.8072 28.0482 22.941 27.5289L18.3003 24.745C18.0745 24.6095 17.9148 24.3943 17.8508 24.1388C17.7873 23.8838 17.827 23.619 17.9623 23.3933C18.0468 23.2523 18.1652 23.1411 18.3024 23.0589L18.3011 23.0581C18.0753 22.9226 17.9156 22.7075 17.852 22.4523C17.788 22.1971 17.8277 21.9321 17.9631 21.7062C18.0504 21.561 18.1699 21.4475 18.3064 21.367C18.1083 21.2307 17.9656 21.0328 17.9069 20.798C17.8429 20.5426 17.8826 20.2778 18.0181 20.0521C18.1534 19.8263 18.3687 19.6667 18.6239 19.6029C18.7036 19.5829 18.7844 19.5731 18.8645 19.5731C19.0216 19.5732 19.1757 19.6131 19.3174 19.6872C19.3261 19.5037 19.3807 19.3235 19.488 19.1688C19.782 18.7446 20.371 18.6272 20.8299 18.9025L24.6301 21.182L24.1403 20.2997C23.9523 19.9629 23.9592 19.5473 24.1585 19.2151C24.2556 19.0534 24.3943 18.9191 24.5601 18.8261C24.6964 18.7506 24.844 18.7149 24.9896 18.7149C25.3023 18.715 25.606 18.88 25.7677 19.1721C26.3312 20.1874 27.3945 22.1022 27.4693 22.2358C27.4852 22.259 27.5332 22.3278 27.5744 22.3864C27.6136 22.442 27.6559 22.4951 27.6997 22.5479C28.6486 23.6981 28.763 25.2044 27.998 26.4793L27.998 26.4793ZM27.2957 22.8817C27.2435 22.8185 27.1924 22.7541 27.1458 22.6877C27.0041 22.4866 27.0005 22.4814 26.9898 22.4287C26.8242 22.1547 26.4201 21.4272 25.3094 19.4262C25.212 19.2505 24.9906 19.1864 24.8143 19.2838C24.7276 19.3324 24.6579 19.4001 24.607 19.4849C24.504 19.6566 24.5001 19.8711 24.5974 20.0452L25.5613 21.7821C25.6189 21.8857 25.5997 22.015 25.5146 22.0973C25.4296 22.1798 25.2997 22.1942 25.1977 22.1335L20.5604 19.3515C20.3418 19.2205 20.0537 19.2718 19.9185 19.467C19.8408 19.5792 19.816 19.713 19.8485 19.8437C19.8784 19.9631 19.9533 20.0638 20.0594 20.1274C20.0597 20.1276 20.0599 20.1279 20.0602 20.128L23.0923 21.947C23.2163 22.0215 23.2564 22.1822 23.182 22.3064C23.1075 22.4302 22.947 22.4707 22.8227 22.3961L19.1002 20.163C18.9946 20.0997 18.8703 20.081 18.7509 20.111C18.6312 20.1408 18.5305 20.2156 18.467 20.3217C18.4034 20.4275 18.385 20.5516 18.4146 20.671C18.4444 20.7904 18.5194 20.8913 18.6253 20.9549L19.3497 21.3893L22.3476 23.188C22.4716 23.2625 22.5118 23.4232 22.4373 23.5473C22.3628 23.6711 22.2023 23.7115 22.078 23.637L19.0453 21.8175C18.8272 21.6863 18.5431 21.7575 18.4119 21.9759C18.3483 22.0819 18.33 22.206 18.3595 22.3254C18.3893 22.4448 18.4643 22.5455 18.5704 22.6093L19.3139 23.0553L21.6031 24.4288C21.727 24.5032 21.7672 24.6639 21.6928 24.7881C21.6183 24.9119 21.4578 24.9526 21.3335 24.8778L19.0443 23.5043C18.9387 23.441 18.8149 23.4223 18.6948 23.4524C18.5754 23.4822 18.4744 23.557 18.411 23.6628C18.3475 23.7687 18.329 23.893 18.3585 24.0122C18.3883 24.1316 18.4633 24.2323 18.5694 24.2961L23.2101 27.08C23.9632 27.5318 24.8316 27.6882 25.6546 27.5203C26.4689 27.354 27.1417 26.8888 27.5487 26.2102C28.2064 25.1144 28.1118 23.87 27.296 22.8816L27.2957 22.8817Z" fill="#103E13"/>
</svg>
