<svg width="46" height="40" viewBox="0 0 46 40" fill="none" xmlns="http://www.w3.org/2000/svg">
<path d="M45.7925 26.5507C45.7925 33.4704 40.1829 39.08 33.2632 39.08L14.4694 39.08C12.5472 39.08 10.989 37.5217 10.989 35.5996L10.989 11.9332C10.989 8.08896 14.1054 4.97255 17.9497 4.97255L42.3121 4.97255C44.2343 4.97255 45.7925 6.53076 45.7925 8.4529L45.7925 26.5507Z" fill="#E8F5E9"/>
<path d="M19.2836 13.333C19.0665 13.333 18.8899 13.1567 18.8899 12.9392V12.2701C18.8899 12.0529 19.0662 11.8763 19.2836 11.8763C19.5008 11.8763 19.6774 12.0526 19.6774 12.2701V12.9392C19.6774 13.1567 19.5008 13.333 19.2836 13.333Z" fill="#103E13"/>
<path d="M17.6281 13.333C17.4109 13.333 17.2344 13.1567 17.2344 12.9392V12.2701C17.2344 12.0529 17.4107 11.8763 17.6281 11.8763C17.8453 11.8763 18.0219 12.0526 18.0219 12.2701V12.9392C18.0216 13.1567 17.8456 13.333 17.6281 13.333Z" fill="#103E13"/>
<path d="M15.9729 13.333C15.7557 13.333 15.5791 13.1567 15.5791 12.9392V12.2701C15.5791 12.0529 15.7554 11.8763 15.9729 11.8763C16.19 11.8763 16.3666 12.0526 16.3666 12.2701V12.9392C16.3666 13.1567 16.1903 13.333 15.9729 13.333Z" fill="#103E13"/>
<path d="M19.2836 16.0693C19.0665 16.0693 18.8899 15.8931 18.8899 15.6756V15.0067C18.8899 14.7895 19.0662 14.613 19.2836 14.613C19.5008 14.613 19.6774 14.7893 19.6774 15.0067V15.6756C19.6774 15.8931 19.5008 16.0693 19.2836 16.0693Z" fill="#103E13"/>
<path d="M17.6281 16.0693C17.4109 16.0693 17.2344 15.8931 17.2344 15.6756V15.0067C17.2344 14.7895 17.4107 14.613 17.6281 14.613C17.8453 14.613 18.0219 14.7893 18.0219 15.0067V15.6756C18.0216 15.8931 17.8456 16.0693 17.6281 16.0693Z" fill="#103E13"/>
<path d="M15.9729 16.0693C15.7557 16.0693 15.5791 15.8931 15.5791 15.6756V15.0067C15.5791 14.7895 15.7554 14.613 15.9729 14.613C16.19 14.613 16.3666 14.7893 16.3666 15.0067V15.6756C16.3666 15.8931 16.1903 16.0693 15.9729 16.0693Z" fill="#103E13"/>
<path d="M19.2836 18.8058C19.0665 18.8058 18.8899 18.6295 18.8899 18.4121V17.7429C18.8899 17.5257 19.0662 17.3492 19.2836 17.3492C19.5008 17.3492 19.6774 17.5255 19.6774 17.7429V18.4121C19.6774 18.6295 19.5008 18.8058 19.2836 18.8058Z" fill="#103E13"/>
<path d="M17.6281 18.8058C17.4109 18.8058 17.2344 18.6295 17.2344 18.4121V17.7429C17.2344 17.5257 17.4107 17.3492 17.6281 17.3492C17.8453 17.3492 18.0219 17.5255 18.0219 17.7429V18.4121C18.0216 18.6295 17.8456 18.8058 17.6281 18.8058Z" fill="#103E13"/>
<path d="M15.9729 18.8058C15.7557 18.8058 15.5791 18.6295 15.5791 18.4121V17.7429C15.5791 17.5257 15.7554 17.3492 15.9729 17.3492C16.19 17.3492 16.3666 17.5255 16.3666 17.7429V18.4121C16.3666 18.6295 16.1903 18.8058 15.9729 18.8058Z" fill="#103E13"/>
<path d="M19.2836 21.5417C19.0665 21.5417 18.8899 21.3654 18.8899 21.1479V20.4788C18.8899 20.2616 19.0662 20.085 19.2836 20.085C19.5008 20.085 19.6774 20.2613 19.6774 20.4788V21.1479C19.6774 21.3654 19.5008 21.5417 19.2836 21.5417Z" fill="#103E13"/>
<path d="M17.6281 21.5417C17.4109 21.5417 17.2344 21.3654 17.2344 21.1479V20.4788C17.2344 20.2616 17.4107 20.085 17.6281 20.085C17.8453 20.085 18.0219 20.2613 18.0219 20.4788V21.1479C18.0216 21.3654 17.8456 21.5417 17.6281 21.5417Z" fill="#103E13"/>
<path d="M15.9729 21.5417C15.7557 21.5417 15.5791 21.3654 15.5791 21.1479V20.4788C15.5791 20.2616 15.7554 20.085 15.9729 20.085C16.19 20.085 16.3666 20.2613 16.3666 20.4788V21.1479C16.3666 21.3654 16.1903 21.5417 15.9729 21.5417Z" fill="#103E13"/>
<path d="M19.2836 24.278C19.0665 24.278 18.8899 24.1017 18.8899 23.8843V23.2154C18.8899 22.9982 19.0662 22.8217 19.2836 22.8217C19.5008 22.8217 19.6774 22.9979 19.6774 23.2154V23.8843C19.6774 24.1015 19.5008 24.278 19.2836 24.278Z" fill="#103E13"/>
<path d="M17.6281 24.278C17.4109 24.278 17.2344 24.1017 17.2344 23.8843V23.2154C17.2344 22.9982 17.4107 22.8217 17.6281 22.8217C17.8453 22.8217 18.0219 22.9979 18.0219 23.2154V23.8843C18.0216 24.1015 17.8456 24.278 17.6281 24.278Z" fill="#103E13"/>
<path d="M15.9729 24.278C15.7557 24.278 15.5791 24.1017 15.5791 23.8843L15.5794 23.2154C15.5794 22.9982 15.7557 22.8217 15.9731 22.8217C16.1903 22.8217 16.3669 22.9979 16.3669 23.2154V23.8843C16.3666 24.1015 16.1903 24.278 15.9729 24.278Z" fill="#103E13"/>
<path d="M4.7247 27.0012C4.7247 27.2184 4.90097 27.395 5.11844 27.395H29.0965C29.3137 27.395 29.4902 27.2187 29.4902 27.0012C29.4902 26.784 29.3139 26.6075 29.0965 26.6075H28.3686V15.3024C28.3686 15.0852 28.1923 14.9086 27.9749 14.9086L21.5462 14.9089V6.75856C21.5462 6.62072 21.4742 6.49332 21.3567 6.42192C21.2394 6.35026 21.0928 6.34586 20.9709 6.40929L13.6619 10.2147C13.5315 10.2825 13.4502 10.4171 13.4502 10.564V17.6831H6.37675C6.15956 17.6831 5.983 17.8594 5.983 18.0769V26.6075H5.11757C4.90038 26.6073 4.72437 26.7835 4.72437 27.001L4.7247 27.0012ZM21.5463 20.8724H27.5815V26.6078L21.5463 26.6075V20.8724ZM21.5463 18.1362H27.5815V20.0852L21.5463 20.0849V18.1362ZM21.5463 15.696H27.5815V17.3493H21.5463V15.696ZM14.2373 10.803L20.7585 7.40758V26.6072H14.2373V10.803ZM8.71693 23.4626C8.71693 22.6455 9.36439 21.9805 10.1604 21.9805C10.9564 21.9805 11.6041 22.6452 11.6041 23.4626V26.6076H8.71693V23.4626ZM6.77048 18.4705H13.4501V26.6075H12.3916V23.4625C12.3916 22.2112 11.3911 21.1931 10.1604 21.1931C8.93027 21.1931 7.92973 22.211 7.92973 23.4625V26.6075H6.77048V18.4705Z" fill="#103E13"/>
</svg>
