<svg width="34" height="35" viewBox="0 0 34 35" fill="none" xmlns="http://www.w3.org/2000/svg">
<g clip-path="url(#clip0_1_1022)">
<path d="M30.0803 9.03323C30.0803 9.35759 30.3465 9.62054 30.6749 9.62054H31.2694C31.5978 9.62054 31.864 9.35759 31.864 9.03323C31.864 8.70887 31.5978 8.44592 31.2694 8.44592H30.6749C30.3465 8.44592 30.0803 8.70887 30.0803 9.03323Z" fill="#212326"/>
<path d="M12.8381 27.2398H15.7264L14.8856 26.4092C14.6626 26.1889 14.3601 26.0652 14.0448 26.0652H12.8381C8.24101 26.0652 4.51431 22.3839 4.51431 17.8429C4.51431 13.3018 8.24101 9.62054 12.8381 9.62054H22.3511C26.9482 9.62054 30.6749 13.3018 30.6749 17.8429C30.6749 22.3839 26.9482 26.0652 22.3511 26.0652H18.7925C18.3194 26.0652 17.8657 25.8795 17.5312 25.5491L16.5462 24.576C15.9886 24.0253 15.2325 23.7159 14.444 23.7159H12.8381C9.55446 23.7159 6.89255 21.0865 6.89255 17.8429C6.89255 14.5992 9.55446 11.9698 12.8381 11.9698H22.3511C25.6348 11.9698 28.2967 14.5992 28.2967 17.8429C28.2967 21.0865 25.6348 23.7159 22.3511 23.7159H20.0661C19.5931 23.7159 19.1394 23.5303 18.8049 23.1999L17.8197 22.2268C17.2622 21.6761 16.5061 21.3667 15.7177 21.3667H12.8381C10.868 21.3667 9.27079 19.789 9.27079 17.8429C9.27079 15.8967 10.868 14.319 12.8381 14.319H22.3511C24.3213 14.319 25.9185 15.8967 25.9185 17.8429C25.9185 19.7653 24.36 21.3282 22.423 21.366L22.4226 21.3667H21.5525C21.0795 21.3667 20.6258 21.1811 20.2913 20.8507L19.3061 19.8776C18.8487 19.4257 18.2575 19.1363 17.6245 19.047L17.5946 19.0175H12.8381C12.1814 19.0175 11.649 18.4916 11.649 17.8429C11.649 17.1941 12.1814 16.6682 12.8381 16.6682H22.3511C23.0078 16.6682 23.5402 17.1941 23.5402 17.8429C23.5402 18.4916 23.0078 19.0175 22.3511 19.0175H19.9729L20.8137 19.8481C21.0367 20.0683 21.3392 20.1921 21.6545 20.1921H22.3511C23.6645 20.1921 24.7293 19.1403 24.7293 17.8429C24.7293 16.5454 23.6645 15.4936 22.3511 15.4936H12.8381C11.5247 15.4936 10.4599 16.5454 10.4599 17.8429C10.4599 19.1403 11.5247 20.1921 12.8381 20.1921H17.2041C17.6771 20.1921 18.1308 20.3777 18.4653 20.7081L19.4505 21.6812C20.008 22.2319 20.7641 22.5413 21.5525 22.5413H22.6484V22.5323C25.1368 22.3807 27.1076 20.3391 27.1076 17.8429C27.1076 15.248 24.978 13.1444 22.3511 13.1444H12.8381C10.2112 13.1444 8.08167 15.248 8.08167 17.8429C8.08167 20.4378 10.2112 22.5413 12.8381 22.5413H15.7177C16.1907 22.5413 16.6444 22.727 16.9789 23.0574L17.9641 24.0305C18.5216 24.5812 19.2777 24.8906 20.0661 24.8906H22.3511C26.2915 24.8906 29.4858 21.7352 29.4858 17.8429C29.4858 13.9505 26.2915 10.7952 22.3511 10.7952H12.8381C8.89774 10.7952 5.70343 13.9505 5.70343 17.8429C5.70343 21.7352 8.89774 24.8906 12.8381 24.8906H14.444C14.9171 24.8906 15.3708 25.0762 15.7053 25.4066L16.6904 26.3797C17.2479 26.9304 18.0041 27.2398 18.7925 27.2398H22.3511C27.605 27.2398 31.864 23.0326 31.864 17.8429C31.864 12.6531 27.605 8.44592 22.3511 8.44592L12.8381 8.44592C7.58429 8.44593 3.32519 12.6531 3.3252 17.8429C3.3252 23.0326 7.58429 27.2398 12.8381 27.2398Z" fill="#212326"/>
</g>
<defs>
<clipPath id="clip0_1_1022">
<rect width="28.5388" height="18.7939" fill="white" transform="translate(3.3252 8.44592)"/>
</clipPath>
</defs>
</svg>
