<svg width="39" height="35" viewBox="0 0 39 35" fill="none" xmlns="http://www.w3.org/2000/svg">
<g clip-path="url(#clip0_1_1030)">
<path d="M38.8873 14.4805C38.8913 14.4515 38.8913 14.4222 38.8873 14.3931C38.8911 14.3695 38.8911 14.3454 38.8873 14.3217L38.6037 12.2803C38.5628 12.0361 38.4534 11.8079 38.2877 11.6211L38.2391 11.5655L38.15 11.4781L33.2402 7.33191L33.3779 7.46695C33.2653 7.33478 33.1238 7.22906 32.964 7.15758C32.8041 7.0861 32.63 7.05067 32.4543 7.05392H30.9635C30.7211 7.04921 30.4843 7.12477 30.2911 7.26838C30.0882 7.12563 29.844 7.05046 29.5943 7.05392H28.1035C27.908 7.05081 27.7152 7.09838 27.5444 7.19183C27.3737 7.28528 27.2312 7.42129 27.1313 7.58609C26.9774 7.82147 26.9195 8.10506 26.9693 8.38038L27.1556 9.66712C27.0322 9.59852 26.8924 9.56292 26.7505 9.56388H19.5317C19.2727 9.56547 19.0196 9.63989 18.8025 9.77833C18.5925 9.90718 18.4239 10.0917 18.3164 10.3105L17.7573 9.84187C17.5373 9.64229 17.2469 9.53411 16.9471 9.54005H5.62061C5.36068 9.54469 5.10654 9.61587 4.88335 9.74656C4.578 9.92177 4.35423 10.2067 4.25948 10.5408L0.662212 22.3361C0.594998 22.5304 0.588386 22.74 0.643223 22.9381C0.69806 23.1361 0.811861 23.3137 0.97009 23.4481C1.01132 23.4823 1.05461 23.5142 1.09972 23.5434C1.09972 23.5434 1.0268 23.4957 0.986285 23.456L5.89609 27.6101C6.10379 27.7976 6.37534 27.9024 6.65763 27.904H18.0733C18.334 27.8974 18.5884 27.8234 18.8106 27.6895C18.9363 27.6222 19.0488 27.5334 19.1428 27.4274L19.1833 27.3718L19.2481 27.2924L19.2967 27.205L19.8315 27.6578C20.0362 27.8378 20.3018 27.9368 20.5768 27.9358H32.0168C32.2772 27.9273 32.5311 27.8535 32.7541 27.7213C32.8769 27.6499 32.9888 27.5616 33.0863 27.4592L33.1267 27.4036L33.1916 27.3242C33.226 27.2739 33.2559 27.2208 33.2807 27.1653C33.3072 27.1172 33.3288 27.0666 33.3455 27.0144L36.6268 16.2439V16.1485C36.6308 16.1116 36.6308 16.0743 36.6268 16.0373V15.9659C36.6307 15.9422 36.6307 15.9181 36.6268 15.8944C36.6305 15.8441 36.6305 15.7937 36.6268 15.7434H37.6801C37.7717 15.7517 37.8639 15.7517 37.9555 15.7434H38.0285C38.0877 15.7261 38.1449 15.7021 38.1986 15.672H38.2796L38.4254 15.5608L38.4903 15.5131L38.6037 15.3701V15.3225L38.6847 15.1874C38.6802 15.1612 38.6802 15.1343 38.6847 15.108C38.6804 15.0951 38.6804 15.0812 38.6847 15.0683C38.7019 15.0217 38.7155 14.9739 38.7252 14.9253C38.7214 14.9097 38.7214 14.8933 38.7252 14.8777C38.7213 14.854 38.7213 14.8298 38.7252 14.8062C38.7252 14.8062 38.8873 14.4964 38.8873 14.4805Z" fill="black"/>
<path d="M17.2793 10.4456C17.3224 10.4837 17.3524 10.5338 17.3654 10.5892C17.3785 10.6446 17.3739 10.7026 17.3523 10.7553L13.7631 22.5426C13.7179 22.6713 13.6255 22.7789 13.5039 22.8444C13.4049 22.9093 13.2904 22.9477 13.1716 22.9556H1.76412C1.66669 22.951 1.5744 22.9115 1.50485 22.8444C1.46348 22.8069 1.43444 22.7582 1.42145 22.7044C1.40846 22.6507 1.41212 22.5943 1.43193 22.5426L5.0292 10.7553C5.07065 10.625 5.16021 10.5146 5.28036 10.4456C5.38095 10.3853 5.49493 10.3499 5.61254 10.3423H17.0201C17.1167 10.3432 17.2094 10.3801 17.2793 10.4456ZM11.3244 20.1677L13.4714 13.1303H7.45981L5.32086 20.1677H11.3244ZM28.1684 10.5647C28.2073 10.609 28.256 10.6442 28.3107 10.6676C28.3654 10.691 28.4247 10.702 28.4844 10.6997H29.967C30.0235 10.7003 30.0791 10.6867 30.1288 10.6603C30.1784 10.6339 30.2203 10.5955 30.2506 10.5488C30.2769 10.5123 30.2955 10.471 30.3053 10.4274C30.315 10.3837 30.3157 10.3386 30.3073 10.2947L30.0156 8.19773C29.9879 8.10068 29.938 8.01106 29.8698 7.93561C29.8309 7.89127 29.7823 7.8561 29.7275 7.83272C29.6728 7.80935 29.6134 7.79836 29.5538 7.80058H28.0712C28.0147 7.80004 27.959 7.81362 27.9094 7.84002C27.8598 7.86643 27.8179 7.90479 27.7876 7.9515C27.7309 8.0627 27.7066 8.13418 27.7309 8.19773L28.0307 10.2947C28.046 10.3968 28.0943 10.4914 28.1684 10.5647ZM32.8756 8.18184C32.8478 8.08479 32.798 7.99517 32.7298 7.91972C32.6925 7.87554 32.6453 7.84039 32.5919 7.81697C32.5385 7.79355 32.4804 7.78251 32.4219 7.7847H30.9311C30.8756 7.78314 30.8207 7.79635 30.7722 7.82292C30.7237 7.84949 30.6835 7.88843 30.6557 7.93561C30.6018 8.00608 30.5785 8.09459 30.5909 8.18184L30.8906 10.2788C30.9094 10.3798 30.9572 10.4735 31.0284 10.5488C31.068 10.5923 31.1168 10.6269 31.1713 10.6502C31.2259 10.6735 31.2848 10.685 31.3443 10.6838H32.8351C32.8905 10.6846 32.9451 10.671 32.9934 10.6445C33.0418 10.618 33.0822 10.5796 33.1106 10.5329C33.1388 10.4974 33.1585 10.4561 33.1683 10.4121C33.1781 10.3682 33.1778 10.3226 33.1673 10.2788L32.8756 8.18184ZM26.864 11.359L26.7181 10.3264H19.5317C19.4189 10.3325 19.3097 10.3682 19.2157 10.4297C19.156 10.4616 19.1041 10.5058 19.0635 10.5593C19.023 10.6128 18.9948 10.6742 18.9808 10.7395L18.3812 12.7093C18.3573 12.7585 18.3491 12.8137 18.3578 12.8676C18.3665 12.9215 18.3916 12.9715 18.4298 13.0111C18.4981 13.0741 18.5873 13.1108 18.681 13.1144H27.4149L25.2679 20.1518H16.5583C16.446 20.1543 16.3366 20.1873 16.2423 20.2471C16.1277 20.3184 16.0441 20.4288 16.0074 20.5569L15.3997 22.5267C15.3799 22.5773 15.3747 22.6322 15.3847 22.6854C15.3947 22.7387 15.4195 22.7882 15.4564 22.8285C15.5226 22.8957 15.6125 22.9355 15.7076 22.9397H27.1475C27.2658 22.9298 27.3799 22.8916 27.4797 22.8285C27.5993 22.7626 27.6891 22.6548 27.7309 22.5267L31.0203 11.7561H27.3177C27.2589 11.7573 27.2006 11.7466 27.1463 11.7247C27.0919 11.7029 27.0427 11.6703 27.0017 11.6291C26.9347 11.557 26.8874 11.4696 26.864 11.3749V11.359Z" fill="white"/>
</g>
<defs>
<clipPath id="clip0_1_1030">
<rect width="38.2838" height="20.8821" fill="white" transform="translate(0.606445 7.05371)"/>
</clipPath>
</defs>
</svg>
