<svg width="34" height="35" viewBox="0 0 34 35" fill="none" xmlns="http://www.w3.org/2000/svg">
<g clip-path="url(#clip0_1_996)">
<path fill-rule="evenodd" clip-rule="evenodd" d="M9.97901 3.68005C13.8233 3.68005 16.9397 6.79646 16.9397 10.6407V3.68005H23.9004C27.7446 3.68005 30.8611 6.79646 30.8611 10.6407C30.8611 14.485 27.7446 17.6014 23.9004 17.6014C27.7446 17.6014 30.8611 20.7179 30.8611 24.5621C30.8611 26.471 30.0927 28.2004 28.8484 29.4579L28.8224 29.4841L28.7993 29.5071C27.5415 30.7532 25.8108 31.5228 23.9004 31.5228C22.003 31.5228 20.2829 30.7636 19.0272 29.5324C19.0109 29.5164 18.9946 29.5003 18.9784 29.4841C18.9632 29.4689 18.948 29.4536 18.9329 29.4382C17.7001 28.1823 16.9397 26.461 16.9397 24.5621C16.9397 28.4064 13.8233 31.5228 9.97901 31.5228C6.13472 31.5228 3.01831 28.4064 3.01831 24.5621V17.6014H9.97901C6.13472 17.6014 3.01831 14.485 3.01831 10.6407C3.01831 6.79646 6.13472 3.68005 9.97901 3.68005ZM15.5476 10.6407C15.5476 13.7162 13.0544 16.2093 9.97901 16.2093V5.07219C13.0544 5.07219 15.5476 7.56532 15.5476 10.6407ZM29.469 24.5621C29.469 21.4867 26.9758 18.9936 23.9004 18.9936C20.825 18.9936 18.3318 21.4867 18.3318 24.5621H29.469ZM4.41045 18.9936V24.5621C4.41045 27.6376 6.90358 30.1307 9.97901 30.1307C13.0544 30.1307 15.5476 27.6376 15.5476 24.5621V18.9936H4.41045ZM18.3318 16.2093V5.07219H23.9004C26.9758 5.07219 29.469 7.56532 29.469 10.6407C29.469 13.7162 26.9758 16.2093 23.9004 16.2093H18.3318Z" fill="#263238"/>
</g>
<defs>
<clipPath id="clip0_1_996">
<rect width="27.8428" height="27.8428" fill="white" transform="translate(3.01831 3.68005)"/>
</clipPath>
</defs>
</svg>
