<svg width="37" height="15" viewBox="0 0 37 15" fill="none" xmlns="http://www.w3.org/2000/svg">
<g clip-path="url(#clip0_1_1027)">
<path d="M8.81726 0.534058C7.40373 0.534058 6.04811 1.09558 5.0486 2.09509L1.78662 5.35708C0.787105 6.35659 0.225586 7.7122 0.225586 9.12574C0.225586 12.0693 2.61178 14.4554 5.5553 14.4554C6.96883 14.4554 8.32445 13.8939 9.32396 12.8944L11.5803 10.6381C11.5803 10.638 11.5803 10.6381 11.5803 10.6381L18.1545 4.06387C18.6318 3.58651 19.2793 3.31834 19.9544 3.31834C21.0846 3.31834 22.0428 4.05497 22.375 5.07432L24.4498 2.99952C23.5033 1.51707 21.8436 0.534058 19.9544 0.534058C18.5408 0.534058 17.1852 1.09558 16.1857 2.09509L7.35519 10.9256C6.87783 11.403 6.23039 11.6712 5.5553 11.6712C4.14949 11.6712 3.00986 10.5316 3.00986 9.12574C3.00986 8.45064 3.27804 7.8032 3.7554 7.32584L7.01737 4.06387C7.49473 3.58651 8.14217 3.31834 8.81726 3.31834C9.94754 3.31834 10.9057 4.055 11.2379 5.07438L13.3128 2.99957C12.3662 1.51709 10.7066 0.534058 8.81726 0.534058Z" fill="#394149"/>
<path d="M18.4924 10.9256C18.0151 11.403 17.3676 11.6712 16.6925 11.6712C15.5624 11.6712 14.6043 10.9347 14.272 9.91554L12.1973 11.9903C13.1438 13.4726 14.8034 14.4554 16.6925 14.4554C18.1061 14.4554 19.4617 13.8939 20.4612 12.8944L29.2917 4.06387C29.7691 3.58651 30.4165 3.31834 31.0916 3.31834C32.4974 3.31834 33.637 4.45796 33.637 5.86377C33.637 6.53886 33.3689 7.1863 32.8915 7.66367L29.6295 10.9256C29.1522 11.403 28.5047 11.6712 27.8296 11.6712C26.6995 11.6712 25.7413 10.9346 25.409 9.91531L23.3343 11.9901C24.2808 13.4725 25.9404 14.4554 27.8296 14.4554C29.2432 14.4554 30.5988 13.8939 31.5983 12.8944L34.8603 9.63243C35.8598 8.63292 36.4213 7.2773 36.4213 5.86377C36.4213 2.92025 34.0351 0.534058 31.0916 0.534058C29.6781 0.534058 28.3225 1.09558 27.3229 2.09509L18.4924 10.9256Z" fill="#394149"/>
</g>
<defs>
<clipPath id="clip0_1_1027">
<rect width="36.1956" height="13.9214" fill="white" transform="translate(0.225586 0.534058)"/>
</clipPath>
</defs>
</svg>
