<svg width="34" height="35" viewBox="0 0 34 35" fill="none" xmlns="http://www.w3.org/2000/svg">
<g clip-path="url(#clip0_1_1006)">
<path d="M31.7852 10.2311C31.7852 10.2546 31.7852 10.284 31.779 10.3017C31.7484 10.5312 31.7484 10.7607 31.7667 10.996C31.779 11.0549 31.7913 11.1137 31.8403 11.1608C31.92 11.249 32.0426 11.2314 32.0917 11.1255C32.1162 11.0725 32.1162 11.0196 32.1039 10.9666C32.0426 10.743 32.0304 10.5076 32.0243 10.2781C32.0243 10.2664 32.0243 10.2487 32.0243 10.2311C32.0917 10.2252 32.153 10.2193 32.2082 10.2193C32.2511 10.2134 32.2879 10.2075 32.3186 10.1899C32.4105 10.1428 32.4105 10.0428 32.3124 9.99571C32.2756 9.97805 32.2266 9.97217 32.1837 9.97217C32.0304 9.97805 31.8771 9.97805 31.7238 9.97805C31.6687 9.97805 31.6135 9.98394 31.5583 9.98982C31.5276 9.99571 31.4909 9.99571 31.4664 10.0134C31.4234 10.031 31.3989 10.0604 31.3989 10.1016C31.405 10.1428 31.4234 10.1663 31.4664 10.184C31.4909 10.2017 31.5215 10.2075 31.5522 10.2075C31.6257 10.2134 31.7055 10.2252 31.7852 10.2311ZM33.4711 10.5017C33.4711 10.5076 33.4772 10.5135 33.4772 10.5135C33.5018 10.6724 33.5263 10.8254 33.5447 10.9784C33.5508 11.0313 33.557 11.0784 33.5937 11.1196C33.6734 11.2196 33.7961 11.2078 33.8512 11.1019C33.8758 11.049 33.8819 10.996 33.8696 10.9372C33.8328 10.7607 33.8144 10.5841 33.7777 10.4135C33.7531 10.3076 33.7225 10.2075 33.6918 10.1134C33.6734 10.0545 33.6305 10.0134 33.557 10.0075C33.4834 9.99571 33.4282 10.031 33.3975 10.084C33.3608 10.131 33.3301 10.1781 33.3056 10.2311C33.2627 10.3252 33.2259 10.4194 33.1769 10.5076C33.1707 10.5312 33.1646 10.5488 33.1523 10.5665C33.1462 10.5547 33.1401 10.5488 33.1401 10.5488C33.0603 10.4017 32.9868 10.2546 32.9071 10.1134C32.8948 10.1016 32.8887 10.0899 32.8826 10.0781C32.8458 10.0251 32.8029 9.99571 32.7354 9.99571C32.6741 10.0016 32.625 10.0369 32.5944 10.0899C32.5821 10.1134 32.5821 10.131 32.576 10.1546C32.5515 10.3429 32.5208 10.5312 32.4963 10.7195C32.484 10.8254 32.4779 10.9313 32.4779 11.0372C32.4718 11.0607 32.4779 11.0902 32.4902 11.1137C32.5025 11.1608 32.5392 11.1902 32.5883 11.1961C32.6496 11.202 32.6925 11.1843 32.7109 11.1372C32.7293 11.1019 32.7354 11.0725 32.7416 11.0431C32.7661 10.9372 32.7845 10.8371 32.8029 10.7371C32.8151 10.6783 32.8212 10.6312 32.8397 10.5665C32.8519 10.59 32.8641 10.6077 32.8764 10.6253C32.9316 10.6959 32.9868 10.7665 33.0542 10.8254C33.1217 10.8725 33.1769 10.8666 33.232 10.8136C33.2443 10.8018 33.2504 10.796 33.2627 10.7842C33.3179 10.7018 33.3853 10.6194 33.4405 10.5371C33.4527 10.5253 33.4589 10.5135 33.4711 10.5017Z" fill="#3A3B7B"/>
<path d="M19.3447 10.3466C19.3021 10.4584 19.294 10.539 19.3136 10.606C19.3354 10.697 19.3918 10.7268 19.4683 10.7037C20.1884 10.5328 21.7675 11.0179 22.3521 11.1531C22.49 11.1815 22.6022 11.0107 22.5081 10.8575C22.3708 10.7092 20.7924 10.0742 20.1902 10.0395C19.9541 10.0267 19.5321 9.96863 19.3447 10.3466Z" fill="#3A3B7B"/>
<path d="M25.516 8.29099C25.5928 8.3335 25.6357 8.37406 25.6568 8.41937C25.6884 8.47881 25.6717 8.51993 25.6187 8.54092C25.1427 8.76389 24.5093 9.72383 24.2536 10.0549C24.1917 10.1311 24.0487 10.0868 24.0271 9.96156C24.0315 9.81995 24.593 8.7782 24.9064 8.49446C25.0295 8.38368 25.233 8.16632 25.516 8.29099Z" fill="#3A3B7B"/>
<path d="M21.7255 7.81848C21.8177 7.75178 21.9135 7.72841 21.9624 7.77175C22.6806 8.36125 23.0615 9.29478 23.2973 10.1494C23.3062 10.1693 23.3067 10.1979 23.2996 10.2277C23.2967 10.2532 23.2773 10.2801 23.2465 10.3009C23.2136 10.3239 23.1853 10.3309 23.1719 10.3111C22.8572 9.90017 21.0594 8.30139 21.7255 7.81848Z" fill="#3A3B7B"/>
<path d="M6.51682 18.0389C6.68895 17.9159 6.87608 17.8135 7.07411 17.734C7.28129 17.6772 7.50211 17.6866 7.70322 17.7609C7.90428 17.8352 8.07473 17.9703 8.18867 18.1458C8.2906 18.3209 8.33046 18.523 8.30233 18.7218C8.27419 18.9205 8.17955 19.105 8.03262 19.2477C7.91872 19.3633 7.7894 19.464 7.64812 19.5472C7.0184 19.9377 6.38307 20.3067 5.74777 20.6972C5.61777 20.7949 5.47987 20.8826 5.33537 20.9593C5.11559 21.0645 4.86441 21.0926 4.62526 21.0389C4.38613 20.9852 4.17407 20.853 4.02575 20.6651C3.91488 20.5321 3.82131 20.3866 3.74711 20.2318C3.14524 19.0177 2.52108 17.8089 1.94151 16.5733C1.67401 16.0385 1.45667 15.4233 1.2449 14.8296C1.15328 14.6571 1.13539 14.4572 1.19503 14.2722C1.25468 14.0872 1.38716 13.9319 1.56429 13.8392C1.74143 13.7465 1.94924 13.7239 2.14353 13.776C2.33782 13.8281 2.50326 13.9509 2.60467 14.1183C2.91638 14.5158 3.1923 14.9381 3.42946 15.3806C4.03132 16.4503 4.60533 17.52 5.18491 18.5577C5.21865 18.615 5.25587 18.6704 5.29636 18.7235C5.73259 18.5475 6.14289 18.3173 6.51682 18.0389Z" fill="#3A3B7B"/>
<path d="M12.7398 17.6658C11.3634 19.2115 9.05619 18.8211 7.89704 16.8314C7.07224 15.4193 6.92736 13.0873 8.72184 11.6164C9.10503 11.3084 9.56323 11.0987 10.0537 11.0066C10.6551 10.9239 11.2684 11.0257 11.8059 11.2976C12.3433 11.5694 12.7775 11.9974 13.0464 12.5203C14.0272 14.2319 13.8879 16.4142 12.7398 17.6658ZM12.1826 14.0607C12.0363 13.6401 11.743 13.2811 11.3522 13.0445C11.1311 12.8932 10.8624 12.8197 10.5914 12.8362C10.3204 12.8528 10.0636 12.9584 9.86426 13.1354C9.06736 13.8147 8.90014 15.4247 9.47971 16.3821C9.5536 16.5382 9.66208 16.6769 9.79766 16.7886C9.93324 16.9003 10.0926 16.9822 10.2646 17.0285C10.4366 17.0749 10.617 17.0846 10.7934 17.057C10.9697 17.0294 11.1376 16.9652 11.2854 16.8688C11.7173 16.5473 12.0343 16.1047 12.192 15.6024C12.3499 15.1001 12.3407 14.5631 12.1659 14.0661L12.1826 14.0607Z" fill="#3A3B7B"/>
<path d="M18.3572 14.7346C18.2163 14.7637 18.0707 14.7654 17.929 14.7397C17.7874 14.714 17.6525 14.6613 17.5324 14.5849C17.4273 14.5271 17.3368 14.4478 17.2675 14.3525C17.1982 14.2573 17.1517 14.1484 17.1315 14.0338C17.1112 13.9193 17.1177 13.8018 17.1504 13.6899C17.1831 13.578 17.2413 13.4745 17.3207 13.3867C17.459 13.2104 17.6554 13.0841 17.8779 13.0284C18.459 12.8665 19.0572 12.7678 19.6613 12.7342C19.794 12.7194 19.9284 12.7302 20.0567 12.7659C20.1851 12.8017 20.3046 12.8617 20.4085 12.9424C20.5123 13.0231 20.5983 13.1229 20.6614 13.236C20.7244 13.349 20.7633 13.473 20.7758 13.6007C20.95 14.2278 20.969 14.8854 20.8315 15.5209C20.33 17.5748 18.6024 18.2808 16.663 17.6229C16.1187 17.447 15.6413 17.1193 15.2921 16.6815C14.8264 16.1544 14.4961 15.5297 14.328 14.8576C14.1918 14.2592 14.2067 13.6382 14.3716 13.0464C14.5364 12.4546 14.8463 11.9093 15.2754 11.4559C15.6827 10.9631 16.2112 10.5752 16.8135 10.3273C17.1941 10.126 17.6395 10.0687 18.0619 10.1668C18.1577 10.1923 18.2446 10.2419 18.3138 10.3105C18.3829 10.3791 18.4316 10.4642 18.4549 10.5569C18.4783 10.6497 18.4753 10.7467 18.4463 10.838C18.4174 10.9293 18.3635 11.0115 18.2903 11.0761C18.1512 11.197 18 11.3045 17.8389 11.397C17.3435 11.6999 16.9123 12.0901 16.5683 12.547C16.3428 12.8427 16.1875 13.1822 16.1134 13.5417C16.0392 13.9011 16.048 14.2718 16.1392 14.6277C16.2656 15.1129 16.5461 15.5484 16.9417 15.8739C18.1677 16.9436 19.7615 15.9113 19.4829 14.4511C19.0761 14.5474 18.7194 14.649 18.3572 14.7346Z" fill="#3A3B7B"/>
<path d="M25.8472 17.7514C24.036 18.8211 21.974 17.7514 21.5226 15.5049C21.1938 13.9003 21.818 11.6539 24.0026 10.7981C24.4674 10.6199 24.9715 10.5574 25.4682 10.6162C26.065 10.7211 26.6125 11.003 27.0334 11.4224C27.4543 11.8417 27.7275 12.3773 27.8144 12.9536C28.1822 14.8631 27.3463 16.9009 25.8472 17.7514ZM26.4769 14.1517C26.4764 13.7074 26.3126 13.2774 26.0144 12.9375C25.855 12.7273 25.6245 12.5767 25.3623 12.5113C25.1001 12.446 24.8224 12.47 24.5765 12.5792C23.5957 12.9857 22.9047 14.4619 23.1555 15.5477C23.1747 15.7181 23.2323 15.8825 23.3245 16.0292C23.4167 16.176 23.5412 16.3016 23.6894 16.3974C23.8374 16.4932 24.0055 16.5568 24.1819 16.5837C24.3582 16.6106 24.5386 16.6002 24.7103 16.5533C25.2287 16.3794 25.6776 16.0546 25.9943 15.624C26.3111 15.1935 26.4798 14.6787 26.4769 14.1517Z" fill="#3A3B7B"/>
<path d="M29.646 18.2006C29.6187 18.3964 29.5115 18.5737 29.3479 18.6936C29.1843 18.8134 28.9779 18.866 28.7739 18.8398C28.5699 18.8136 28.3852 18.7106 28.2603 18.5536C28.1354 18.3967 28.0806 18.1985 28.108 18.0027C28.1353 17.807 28.2426 17.6297 28.4061 17.5098C28.5697 17.3899 28.7761 17.3373 28.9801 17.3636C29.1841 17.3898 29.3688 17.4927 29.4937 17.6497C29.6186 17.8067 29.6734 18.0049 29.646 18.2006ZM29.1612 10.9852C29.2672 10.8299 29.4227 10.7116 29.6045 10.6479C29.7863 10.5843 29.9846 10.5788 30.1699 10.6322C30.3583 10.6775 30.5247 10.7834 30.6414 10.9324C30.7581 11.0814 30.8179 11.2643 30.8108 11.4506C30.7862 11.7493 30.7397 12.046 30.6715 12.3384C30.4876 13.328 30.3092 14.3174 30.1142 15.2963C30.025 15.6867 29.908 16.0612 29.7798 16.4569C29.7352 16.5807 29.6607 16.6925 29.5625 16.7832C29.5014 16.8515 29.4234 16.9038 29.3356 16.9354C29.2479 16.9671 29.1532 16.977 29.0604 16.9642C28.9677 16.9514 28.8797 16.9163 28.8048 16.8623C28.7299 16.8082 28.6704 16.7368 28.6318 16.6549C28.5656 16.5078 28.5296 16.3497 28.5259 16.1895C28.5259 15.5263 28.5259 14.8577 28.5705 14.1891C28.6463 13.2349 28.7953 12.2874 29.0163 11.3543C29.0424 11.2293 29.0914 11.1097 29.1612 11.0013V10.9852Z" fill="#3A3B7B"/>
<path fill-rule="evenodd" clip-rule="evenodd" d="M4.16219 22.4987C4.09639 22.6397 4.07834 22.7969 4.1105 22.9481C4.13189 23.1475 4.17887 23.3436 4.25038 23.532C4.33966 23.7627 4.43955 23.9908 4.56273 24.2719C4.59106 24.3366 4.62066 24.4041 4.65164 24.4752C4.81775 24.8561 5.02617 25.3428 5.30418 26.0473C5.38287 26.2474 5.45275 26.4492 5.52311 26.6523C5.55154 26.7344 5.58006 26.8167 5.60926 26.8993C5.71393 27.1927 5.89404 27.4563 6.13276 27.6652C6.23414 27.7801 6.3686 27.8637 6.51937 27.9056C6.67308 27.9482 6.83656 27.9455 6.98864 27.8978C7.14072 27.8501 7.27429 27.7595 7.37202 27.6379C7.46783 27.5186 7.5248 27.375 7.53588 27.2248C7.59803 26.9324 7.57682 26.6292 7.47437 26.3473C7.31178 25.8792 7.12656 25.4104 6.91298 24.952L6.912 24.9499C6.56063 24.2326 6.20348 23.5202 5.82942 22.8076L5.82662 22.8026C5.71712 22.6169 5.57481 22.4509 5.40609 22.3121C5.29656 22.1882 5.14548 22.1046 4.97863 22.0758C4.80823 22.0464 4.63248 22.076 4.48277 22.1594C4.34114 22.2371 4.22887 22.3558 4.16219 22.4987Z" fill="#3A3B7B"/>
<path fill-rule="evenodd" clip-rule="evenodd" d="M9.52871 20.7324C8.97778 20.5954 8.40242 20.5755 7.8427 20.6739C7.40918 20.7149 6.98281 20.8109 6.68673 21.001C6.53615 21.0977 6.4144 21.222 6.34668 21.3799C6.27859 21.5387 6.26989 21.7202 6.3257 21.9226C6.42758 22.2932 6.55989 22.6535 6.69173 23.0127L6.71309 23.0708L6.71361 23.0721C7.11058 24.1155 7.51135 25.1554 7.91575 26.1918C7.96291 26.3551 8.0296 26.5126 8.11447 26.6612L8.11606 26.664C8.22818 26.8486 8.37199 27.0137 8.54141 27.1524C8.62614 27.2286 8.73092 27.2814 8.84454 27.305C8.95928 27.3287 9.07859 27.3219 9.1895 27.285C9.30045 27.2481 9.39869 27.1828 9.47356 27.096C9.54722 27.0106 9.59545 26.9077 9.61316 26.7983C9.68626 26.5009 9.66284 26.1892 9.546 25.9049C9.50955 25.8092 9.48094 25.7115 9.4508 25.6086C9.44075 25.5743 9.43056 25.5394 9.41981 25.5038C10.3455 25.1565 11.3305 24.6895 11.6768 23.6031C11.8125 23.2277 11.8238 22.8212 11.7092 22.4393C11.5945 22.057 11.3592 21.7182 11.0357 21.4694C10.5954 21.1212 10.081 20.8696 9.52871 20.7324ZM8.00161 22.0649C8.01983 22.0598 8.0382 22.0552 8.05662 22.0508C8.65928 21.9599 9.27587 22.081 9.79286 22.3919C10.0207 22.544 10.114 22.7129 10.1301 22.8755C10.1466 23.0429 10.0832 23.2243 9.95578 23.3987C9.71505 23.7281 9.27573 23.9918 8.87889 24.0409C8.58959 23.4015 8.29581 22.7362 8.00161 22.0649Z" fill="#3A3B7B"/>
<path d="M13.2016 19.5619C13.8577 19.2711 14.6704 19.2208 15.3064 19.4253C15.4665 19.4701 15.6055 19.5669 15.6995 19.6993C15.7928 19.8308 15.8359 19.9893 15.8215 20.1478C15.8206 20.2506 15.7943 20.3518 15.7448 20.4431C15.6944 20.5361 15.6215 20.616 15.5321 20.6762C15.4427 20.7363 15.3396 20.775 15.2314 20.7888C15.1232 20.8027 15.0131 20.7913 14.9104 20.7557L14.9026 20.753L14.8953 20.7492C14.8427 20.7229 14.7869 20.703 14.7292 20.6901L14.7256 20.6893C14.2782 20.5752 13.8562 20.7642 13.7021 20.9964C13.6286 21.1071 13.6195 21.2188 13.6807 21.3205C13.7463 21.4294 13.9071 21.5515 14.2325 21.6386C14.322 21.6622 14.4137 21.685 14.5068 21.7081C14.7641 21.772 15.0316 21.8385 15.2901 21.9305L15.2911 21.9309C16.4841 22.3665 16.9283 23.2688 16.7763 24.1175C16.6258 24.9567 15.8956 25.7205 14.7974 25.9006C14.3978 25.9856 13.982 25.9691 13.591 25.8526C13.1991 25.7357 12.8458 25.5225 12.5663 25.2341L12.559 25.2265C12.4707 25.1179 12.4114 24.9902 12.3851 24.8547C12.3609 24.7324 12.3736 24.6061 12.4218 24.4905C12.4696 24.3757 12.5506 24.2762 12.655 24.2038C12.7654 24.1217 12.8984 24.0724 13.0376 24.0621C13.1764 24.0519 13.3152 24.0808 13.4371 24.1453C13.5588 24.2018 13.672 24.2738 13.7736 24.3594L13.7755 24.3609C13.9552 24.5187 14.1727 24.5598 14.3812 24.5217C14.5928 24.4831 14.7917 24.3629 14.9197 24.2035C15.0468 24.0451 15.0979 23.8569 15.0373 23.6742C14.9764 23.4902 14.7931 23.2841 14.3905 23.1117C14.2852 23.0688 14.1761 23.0342 14.0626 23.0005C14.032 22.9914 14.0008 22.9824 13.9693 22.9732C13.8854 22.9488 13.799 22.9236 13.7143 22.8958C13.656 22.8768 13.5982 22.8587 13.5409 22.8407C13.3842 22.7918 13.2316 22.7441 13.0846 22.6801C12.7648 22.5756 12.4885 22.3749 12.2968 22.1078C12.1044 21.8396 12.0075 21.5188 12.0207 21.1935C12.0217 20.4006 12.5421 19.8543 13.2016 19.5619Z" fill="#3A3B7B"/>
<path d="M21.5196 19.4775C21.3923 19.4178 21.2517 19.3895 21.1102 19.3951C20.9688 19.4007 20.831 19.44 20.7093 19.5095C20.5884 19.5785 20.4872 19.6751 20.4147 19.7907C20.3482 19.8881 20.3021 19.997 20.2792 20.1114C20.2562 20.2257 20.2568 20.3431 20.2808 20.4572C20.3045 20.6037 20.3307 20.7462 20.3567 20.8867C20.3996 21.1193 20.4414 21.3466 20.469 21.5783L20.47 21.5842C20.5328 21.9477 20.5656 22.3153 20.5686 22.6837L20.5689 22.6889C20.5903 23.0868 20.4491 23.4769 20.1754 23.7765L20.1711 23.7818C20.082 23.8913 19.963 23.9749 19.8272 24.0232C19.6915 24.0715 19.5445 24.0826 19.4026 24.0553C19.2606 24.0279 19.1294 23.9632 19.0236 23.8684C18.9178 23.7736 18.8415 23.652 18.8034 23.518C18.7221 23.2355 18.675 22.945 18.663 22.6522L18.8019 20.5298C18.804 20.5021 18.8063 20.4736 18.8087 20.4449C18.814 20.3804 18.8194 20.3148 18.8217 20.2535C18.8249 20.1634 18.8221 20.0708 18.8003 19.9831C18.7779 19.8934 18.7353 19.8081 18.6598 19.7355C18.585 19.6636 18.484 19.6106 18.357 19.5745C18.1273 19.5107 17.9331 19.5127 17.7712 19.5786C17.6093 19.6445 17.4983 19.7669 17.4198 19.9083C17.3419 20.0485 17.2919 20.2145 17.254 20.3808C17.2259 20.5041 17.2033 20.6336 17.1819 20.7569C17.1745 20.7994 17.1672 20.8411 17.1599 20.8816L17.1597 20.8828C17.0449 21.5589 17.0107 22.2453 17.0578 22.9287C17.0666 23.2981 17.1469 23.6627 17.2946 24.0039C17.4612 24.4441 17.763 24.8255 18.1601 25.0978C18.558 25.3707 19.0329 25.521 19.5219 25.5289C20.0108 25.5369 20.4908 25.402 20.8981 25.1423C21.3048 24.883 21.62 24.5113 21.802 24.0764C22.0566 23.5224 22.1761 22.92 22.1514 22.315C22.1365 21.8732 22.1114 21.4281 22.0865 20.9853C22.0743 20.7681 22.0621 20.5513 22.0511 20.3359C22.0456 20.1198 21.9714 19.9106 21.8384 19.7362C21.7561 19.6259 21.6465 19.537 21.5196 19.4775Z" fill="#3A3B7B"/>
<path d="M26.0222 22.8055C26.0093 22.8212 25.9957 22.8375 25.9815 22.8544C25.878 22.2815 25.7821 21.7088 25.6861 21.1352C25.6516 20.9293 25.617 20.7227 25.5822 20.5166L25.5782 20.4936L25.5655 20.4737C25.5415 20.4363 25.5392 20.3997 25.5392 20.3215V20.3125L25.5377 20.3035C25.5117 20.1421 25.4356 19.9918 25.3194 19.8725C25.2035 19.7534 25.053 19.6706 24.8874 19.6346C24.7221 19.5955 24.5484 19.6041 24.3881 19.6594C24.2283 19.7146 24.0889 19.8138 23.9875 19.9445C23.9032 20.0449 23.8341 20.1562 23.7823 20.2751C23.6648 20.5313 23.5462 20.7881 23.4273 21.0456L23.4252 21.05C23.1284 21.6929 22.8296 22.3401 22.5395 22.9924L22.5386 22.9945C22.3605 23.4175 22.2134 23.8631 22.0669 24.3074C22.0376 24.3961 22.0084 24.4847 21.9789 24.5731C21.926 24.7133 21.9029 24.8622 21.9108 25.0111C21.9012 25.1444 21.9344 25.2773 22.0061 25.392C22.0792 25.509 22.1887 25.601 22.3191 25.6552C22.4574 25.7133 22.6119 25.7257 22.7584 25.6903C22.9045 25.6549 23.0342 25.574 23.1272 25.4602C23.2459 25.32 23.348 25.1672 23.4313 25.0052C23.6771 24.5227 23.912 24.0343 24.1458 23.548C24.2363 23.3599 24.3242 23.1914 24.4242 23.008C24.4311 23.0306 24.4381 23.0526 24.4453 23.0748C24.5501 23.5177 24.7271 23.942 24.9696 24.332C25.0155 24.4146 25.0794 24.4869 25.157 24.5437C25.2355 24.6012 25.3261 24.6416 25.4226 24.6621C25.519 24.6826 25.6189 24.6827 25.7154 24.6624C25.8117 24.6421 25.9026 24.6017 25.9811 24.5444L26.1366 24.4327L27.3435 23.457L27.2721 23.8936C27.1742 24.4936 27.077 25.0886 26.9737 25.6838C26.9061 25.9476 26.9062 26.2231 26.974 26.4868C27.0033 26.6352 27.0781 26.7719 27.1888 26.8793C27.3004 26.9876 27.4433 27.0612 27.599 27.0906C27.7547 27.1199 27.9161 27.1037 28.062 27.0439C28.2059 26.985 28.3282 26.8866 28.4138 26.7611C28.6128 26.5241 28.7366 26.2373 28.7706 25.9346C28.8219 25.5072 28.8797 25.074 28.9376 24.6409C29.0043 24.1417 29.071 23.6427 29.1273 23.1532L29.1275 23.1517C29.1817 22.6159 29.2079 22.0779 29.2061 21.5396C29.218 21.3694 29.1739 21.2 29.0798 21.0551C28.9855 20.9098 28.8457 20.7968 28.6806 20.7322C28.5088 20.6572 28.3165 20.6372 28.1319 20.675C27.9486 20.7127 27.7826 20.8054 27.6581 20.9398C27.4355 21.1374 27.2267 21.3488 27.0329 21.5728L27.0316 21.5743C26.8202 21.8272 26.6101 22.0851 26.4014 22.3413C26.2746 22.4971 26.148 22.6525 26.0222 22.8055Z" fill="#3A3B7B"/>
</g>
<defs>
<clipPath id="clip0_1_1006">
<rect width="32.7153" height="20.186" fill="white" transform="translate(1.1604 7.74976)"/>
</clipPath>
</defs>
</svg>
