<svg width="28" height="21" viewBox="0 0 28 21" fill="none" xmlns="http://www.w3.org/2000/svg">
<path fill-rule="evenodd" clip-rule="evenodd" d="M7.04577 3.61382L0.0949707 10.4947C1.48526 11.8711 3.07345 13.031 4.80502 13.9385C5.28364 15.1953 6.03386 16.3739 7.05567 17.3855C10.9 21.1911 17.1328 21.1911 20.9771 17.3855C21.9989 16.3739 22.7491 15.1953 23.2277 13.9384C24.9593 13.031 26.5475 11.8711 27.9377 10.4947L20.9926 3.61941C20.9874 3.61427 20.9823 3.60912 20.9771 3.60399C17.1328 -0.201655 10.9 -0.201655 7.05567 3.60399C7.05237 3.60727 7.04907 3.61054 7.04577 3.61382ZM20.312 15.1799C18.2864 15.8566 16.16 16.2032 14.0164 16.2032C11.8727 16.2032 9.74639 15.8566 7.72083 15.1799C7.9403 15.4681 8.1826 15.7448 8.4478 16.0073C11.5232 19.0519 16.5095 19.0519 19.5849 16.0073C19.8501 15.7448 20.0925 15.4681 20.312 15.1799ZM8.59057 4.84431C9.11283 5.18588 9.66815 5.47817 10.2492 5.71646C11.4435 6.20619 12.7236 6.45825 14.0164 6.45825C15.3091 6.45825 16.5892 6.20619 17.7835 5.71646C18.3646 5.47817 18.9199 5.18587 19.4422 4.8443C16.4051 1.98356 11.6276 1.98357 8.59057 4.84431Z" fill="#3B4158"/>
</svg>
